<mxfile host="app.diagrams.net" modified="2023-04-28T09:31:52.368Z" agent="Mozilla/5.0 (Windows NT 10.0; Win64; x64) AppleWebKit/537.36 (KHTML, like Gecko) Chrome/112.0.0.0 Safari/537.36" etag="hJ-fjQ33IDddX4rhLy93" version="21.2.3" type="device">
  <diagram name="Page-1" id="9f46799a-70d6-7492-0946-bef42562c5a5">
    <mxGraphModel dx="141" dy="285" grid="0" gridSize="10" guides="1" tooltips="1" connect="1" arrows="1" fold="1" page="1" pageScale="1" pageWidth="1920" pageHeight="1200" background="none" math="0" shadow="1">
      <root>
        <mxCell id="0" />
        <mxCell id="1" parent="0" />
        <mxCell id="T9mUNza6fIRcTFa7Orfm-201" value="AI" style="html=1;align=left;horizontal=1;verticalAlign=top;fontStyle=3;fontSize=24;movable=0;resizable=0;rotatable=0;deletable=0;editable=0;connectable=0;" parent="1" vertex="1">
          <mxGeometry x="23" y="1015" width="1121" height="251" as="geometry" />
        </mxCell>
        <mxCell id="2KdH2W9au-dCU_cuiKQ8-33" value="GameObject&lt;br style=&quot;font-size: 24px;&quot;&gt;player" style="html=1;align=left;horizontal=1;verticalAlign=top;fontStyle=3;fontSize=24;movable=0;resizable=0;rotatable=0;deletable=0;editable=0;connectable=0;" parent="1" vertex="1">
          <mxGeometry x="10" y="9" width="1121" height="610" as="geometry" />
        </mxCell>
        <mxCell id="2KdH2W9au-dCU_cuiKQ8-59" value="레벨업 -&gt; 능력치로옮김" style="swimlane;fontStyle=1;align=center;verticalAlign=top;childLayout=stackLayout;horizontal=1;startSize=26;horizontalStack=0;resizeParent=1;resizeParentMax=0;resizeLast=0;collapsible=1;marginBottom=0;rounded=0;" parent="2KdH2W9au-dCU_cuiKQ8-33" vertex="1">
          <mxGeometry x="208" y="258" width="160" height="89" as="geometry">
            <mxRectangle x="211" y="50" width="103" height="26" as="alternateBounds" />
          </mxGeometry>
        </mxCell>
        <mxCell id="8GwpO3qmxpktZa14Auqh-11" value="" style="verticalLabelPosition=bottom;verticalAlign=top;html=1;shape=mxgraph.basic.x" parent="2KdH2W9au-dCU_cuiKQ8-59" vertex="1">
          <mxGeometry y="26" width="160" height="63" as="geometry" />
        </mxCell>
        <mxCell id="2KdH2W9au-dCU_cuiKQ8-35" value="경험치 획득" style="swimlane;fontStyle=1;align=center;verticalAlign=top;childLayout=stackLayout;horizontal=1;startSize=26;horizontalStack=0;resizeParent=1;resizeParentMax=0;resizeLast=0;collapsible=1;marginBottom=0;rounded=0;" parent="2KdH2W9au-dCU_cuiKQ8-33" vertex="1">
          <mxGeometry x="208" y="355" width="160" height="103" as="geometry">
            <mxRectangle x="211" y="50" width="103" height="26" as="alternateBounds" />
          </mxGeometry>
        </mxCell>
        <mxCell id="2KdH2W9au-dCU_cuiKQ8-36" value="+getExp : private int&#xa;+onExpChange : Action&lt;int&gt;" style="text;strokeColor=none;fillColor=none;align=left;verticalAlign=top;spacingLeft=4;spacingRight=4;overflow=hidden;rotatable=0;points=[[0,0.5],[1,0.5]];portConstraint=eastwest;rounded=0;" parent="2KdH2W9au-dCU_cuiKQ8-35" vertex="1">
          <mxGeometry y="26" width="160" height="36" as="geometry" />
        </mxCell>
        <mxCell id="8GwpO3qmxpktZa14Auqh-7" value="" style="line;strokeWidth=1;fillColor=none;align=left;verticalAlign=middle;spacingTop=-1;spacingLeft=3;spacingRight=3;rotatable=0;labelPosition=right;points=[];portConstraint=eastwest;strokeColor=inherit;rounded=0;" parent="2KdH2W9au-dCU_cuiKQ8-35" vertex="1">
          <mxGeometry y="62" width="160" height="8" as="geometry" />
        </mxCell>
        <mxCell id="8GwpO3qmxpktZa14Auqh-5" value="+ GetEXP() : private void" style="text;strokeColor=none;fillColor=none;align=left;verticalAlign=top;spacingLeft=4;spacingRight=4;overflow=hidden;rotatable=0;points=[[0,0.5],[1,0.5]];portConstraint=eastwest;rounded=0;" parent="2KdH2W9au-dCU_cuiKQ8-35" vertex="1">
          <mxGeometry y="70" width="160" height="33" as="geometry" />
        </mxCell>
        <mxCell id="2KdH2W9au-dCU_cuiKQ8-47" value="점수 획득" style="swimlane;fontStyle=1;align=center;verticalAlign=top;childLayout=stackLayout;horizontal=1;startSize=26;horizontalStack=0;resizeParent=1;resizeParentMax=0;resizeLast=0;collapsible=1;marginBottom=0;rounded=0;" parent="2KdH2W9au-dCU_cuiKQ8-33" vertex="1">
          <mxGeometry x="206" y="468" width="160" height="131" as="geometry">
            <mxRectangle x="211" y="50" width="103" height="26" as="alternateBounds" />
          </mxGeometry>
        </mxCell>
        <mxCell id="2KdH2W9au-dCU_cuiKQ8-48" value="+ score : private int&#xa;+ Score : public int [property]" style="text;strokeColor=none;fillColor=none;align=left;verticalAlign=top;spacingLeft=4;spacingRight=4;overflow=hidden;rotatable=0;points=[[0,0.5],[1,0.5]];portConstraint=eastwest;rounded=0;" parent="2KdH2W9au-dCU_cuiKQ8-47" vertex="1">
          <mxGeometry y="26" width="160" height="41" as="geometry" />
        </mxCell>
        <mxCell id="2KdH2W9au-dCU_cuiKQ8-49" value="" style="line;strokeWidth=1;fillColor=none;align=left;verticalAlign=middle;spacingTop=-1;spacingLeft=3;spacingRight=3;rotatable=0;labelPosition=right;points=[];portConstraint=eastwest;strokeColor=inherit;rounded=0;" parent="2KdH2W9au-dCU_cuiKQ8-47" vertex="1">
          <mxGeometry y="67" width="160" height="8" as="geometry" />
        </mxCell>
        <mxCell id="2KdH2W9au-dCU_cuiKQ8-50" value="+ AddScore(int plus):private void" style="text;strokeColor=none;fillColor=none;align=left;verticalAlign=top;spacingLeft=4;spacingRight=4;overflow=hidden;rotatable=0;points=[[0,0.5],[1,0.5]];portConstraint=eastwest;rounded=0;" parent="2KdH2W9au-dCU_cuiKQ8-47" vertex="1">
          <mxGeometry y="75" width="160" height="56" as="geometry" />
        </mxCell>
        <mxCell id="T9mUNza6fIRcTFa7Orfm-5" value="pc 생성 ,초기화 삭제" style="swimlane;fontStyle=1;align=center;verticalAlign=top;childLayout=stackLayout;horizontal=1;startSize=26;horizontalStack=0;resizeParent=1;resizeParentMax=0;resizeLast=0;collapsible=1;marginBottom=0;rounded=0;" parent="2KdH2W9au-dCU_cuiKQ8-33" vertex="1">
          <mxGeometry x="780" y="175" width="160" height="86" as="geometry">
            <mxRectangle x="60" y="50" width="103" height="26" as="alternateBounds" />
          </mxGeometry>
        </mxCell>
        <mxCell id="T9mUNza6fIRcTFa7Orfm-6" value="+ field: type" style="text;strokeColor=none;fillColor=none;align=left;verticalAlign=top;spacingLeft=4;spacingRight=4;overflow=hidden;rotatable=0;points=[[0,0.5],[1,0.5]];portConstraint=eastwest;rounded=0;" parent="T9mUNza6fIRcTFa7Orfm-5" vertex="1">
          <mxGeometry y="26" width="160" height="26" as="geometry" />
        </mxCell>
        <mxCell id="T9mUNza6fIRcTFa7Orfm-7" value="" style="line;strokeWidth=1;fillColor=none;align=left;verticalAlign=middle;spacingTop=-1;spacingLeft=3;spacingRight=3;rotatable=0;labelPosition=right;points=[];portConstraint=eastwest;strokeColor=inherit;rounded=0;" parent="T9mUNza6fIRcTFa7Orfm-5" vertex="1">
          <mxGeometry y="52" width="160" height="8" as="geometry" />
        </mxCell>
        <mxCell id="T9mUNza6fIRcTFa7Orfm-8" value="+ method(type): type" style="text;strokeColor=none;fillColor=none;align=left;verticalAlign=top;spacingLeft=4;spacingRight=4;overflow=hidden;rotatable=0;points=[[0,0.5],[1,0.5]];portConstraint=eastwest;rounded=0;" parent="T9mUNza6fIRcTFa7Orfm-5" vertex="1">
          <mxGeometry y="60" width="160" height="26" as="geometry" />
        </mxCell>
        <mxCell id="T9mUNza6fIRcTFa7Orfm-42" value="충돌처리" style="swimlane;fontStyle=1;align=center;verticalAlign=top;childLayout=stackLayout;horizontal=1;startSize=26;horizontalStack=0;resizeParent=1;resizeParentMax=0;resizeLast=0;collapsible=1;marginBottom=0;rounded=0;fillColor=#ffe6cc;strokeColor=#d79b00;" parent="2KdH2W9au-dCU_cuiKQ8-33" vertex="1">
          <mxGeometry x="22" y="358" width="160" height="85" as="geometry">
            <mxRectangle x="60" y="50" width="103" height="26" as="alternateBounds" />
          </mxGeometry>
        </mxCell>
        <mxCell id="T9mUNza6fIRcTFa7Orfm-43" value="+ canFallDown : private bool" style="text;strokeColor=none;fillColor=none;align=left;verticalAlign=top;spacingLeft=4;spacingRight=4;overflow=hidden;rotatable=0;points=[[0,0.5],[1,0.5]];portConstraint=eastwest;rounded=0;" parent="T9mUNza6fIRcTFa7Orfm-42" vertex="1">
          <mxGeometry y="26" width="160" height="26" as="geometry" />
        </mxCell>
        <mxCell id="T9mUNza6fIRcTFa7Orfm-44" value="" style="line;strokeWidth=1;fillColor=none;align=left;verticalAlign=middle;spacingTop=-1;spacingLeft=3;spacingRight=3;rotatable=0;labelPosition=right;points=[];portConstraint=eastwest;strokeColor=inherit;rounded=0;" parent="T9mUNza6fIRcTFa7Orfm-42" vertex="1">
          <mxGeometry y="52" width="160" height="8" as="geometry" />
        </mxCell>
        <mxCell id="T9mUNza6fIRcTFa7Orfm-45" value="+ Falling() : prviate IEnumerator    " style="text;strokeColor=none;fillColor=none;align=left;verticalAlign=top;spacingLeft=4;spacingRight=4;overflow=hidden;rotatable=0;points=[[0,0.5],[1,0.5]];portConstraint=eastwest;rounded=0;" parent="T9mUNza6fIRcTFa7Orfm-42" vertex="1">
          <mxGeometry y="60" width="160" height="25" as="geometry" />
        </mxCell>
        <mxCell id="2KdH2W9au-dCU_cuiKQ8-1" value="input system(키보드, 핸드폰)" style="swimlane;fontStyle=1;align=center;verticalAlign=top;childLayout=stackLayout;horizontal=1;startSize=26;horizontalStack=0;resizeParent=1;resizeParentMax=0;resizeLast=0;collapsible=1;marginBottom=0;rounded=0;fillColor=#ffe6cc;strokeColor=#d79b00;" parent="1" vertex="1">
          <mxGeometry x="31" y="89" width="160" height="86" as="geometry">
            <mxRectangle x="60" y="50" width="103" height="26" as="alternateBounds" />
          </mxGeometry>
        </mxCell>
        <mxCell id="2KdH2W9au-dCU_cuiKQ8-2" value="+  PlayerRun" style="text;strokeColor=none;fillColor=none;align=left;verticalAlign=top;spacingLeft=4;spacingRight=4;overflow=hidden;rotatable=0;points=[[0,0.5],[1,0.5]];portConstraint=eastwest;rounded=0;" parent="2KdH2W9au-dCU_cuiKQ8-1" vertex="1">
          <mxGeometry y="26" width="160" height="26" as="geometry" />
        </mxCell>
        <mxCell id="2KdH2W9au-dCU_cuiKQ8-3" value="" style="line;strokeWidth=1;fillColor=none;align=left;verticalAlign=middle;spacingTop=-1;spacingLeft=3;spacingRight=3;rotatable=0;labelPosition=right;points=[];portConstraint=eastwest;strokeColor=inherit;rounded=0;" parent="2KdH2W9au-dCU_cuiKQ8-1" vertex="1">
          <mxGeometry y="52" width="160" height="8" as="geometry" />
        </mxCell>
        <mxCell id="2KdH2W9au-dCU_cuiKQ8-4" value="+ method(type): type" style="text;strokeColor=none;fillColor=none;align=left;verticalAlign=top;spacingLeft=4;spacingRight=4;overflow=hidden;rotatable=0;points=[[0,0.5],[1,0.5]];portConstraint=eastwest;rounded=0;" parent="2KdH2W9au-dCU_cuiKQ8-1" vertex="1">
          <mxGeometry y="60" width="160" height="26" as="geometry" />
        </mxCell>
        <mxCell id="2KdH2W9au-dCU_cuiKQ8-5" value="조작(연속점프 꼭)" style="swimlane;fontStyle=1;align=center;verticalAlign=top;childLayout=stackLayout;horizontal=1;startSize=26;horizontalStack=0;resizeParent=1;resizeParentMax=0;resizeLast=0;collapsible=1;marginBottom=0;rounded=0;fillColor=#ffe6cc;strokeColor=#d79b00;" parent="1" vertex="1">
          <mxGeometry x="31" y="184" width="160" height="154" as="geometry">
            <mxRectangle x="211" y="50" width="103" height="26" as="alternateBounds" />
          </mxGeometry>
        </mxCell>
        <mxCell id="2KdH2W9au-dCU_cuiKQ8-6" value="+ dirY : private Vector2&#xa;+ isStart : private bool" style="text;strokeColor=none;fillColor=none;align=left;verticalAlign=top;spacingLeft=4;spacingRight=4;overflow=hidden;rotatable=0;points=[[0,0.5],[1,0.5]];portConstraint=eastwest;rounded=0;" parent="2KdH2W9au-dCU_cuiKQ8-5" vertex="1">
          <mxGeometry y="26" width="160" height="69" as="geometry" />
        </mxCell>
        <mxCell id="2KdH2W9au-dCU_cuiKQ8-7" value="" style="line;strokeWidth=1;fillColor=none;align=left;verticalAlign=middle;spacingTop=-1;spacingLeft=3;spacingRight=3;rotatable=0;labelPosition=right;points=[];portConstraint=eastwest;strokeColor=inherit;rounded=0;" parent="2KdH2W9au-dCU_cuiKQ8-5" vertex="1">
          <mxGeometry y="95" width="160" height="8" as="geometry" />
        </mxCell>
        <mxCell id="2KdH2W9au-dCU_cuiKQ8-8" value="+ RunningMapInputOnEnable() : private void&#xa;+ RunningMapInputOnDisable(): private void&#xa;+ OnDown(inputAction.CallbackContext.obj):private void" style="text;strokeColor=none;fillColor=none;align=left;verticalAlign=top;spacingLeft=4;spacingRight=4;overflow=hidden;rotatable=0;points=[[0,0.5],[1,0.5]];portConstraint=eastwest;rounded=0;" parent="2KdH2W9au-dCU_cuiKQ8-5" vertex="1">
          <mxGeometry y="103" width="160" height="51" as="geometry" />
        </mxCell>
        <mxCell id="2KdH2W9au-dCU_cuiKQ8-9" value="공격" style="swimlane;fontStyle=1;align=center;verticalAlign=top;childLayout=stackLayout;horizontal=1;startSize=26;horizontalStack=0;resizeParent=1;resizeParentMax=0;resizeLast=0;collapsible=1;marginBottom=0;rounded=0;" parent="1" vertex="1">
          <mxGeometry x="418" y="86" width="160" height="86" as="geometry">
            <mxRectangle x="211" y="50" width="103" height="26" as="alternateBounds" />
          </mxGeometry>
        </mxCell>
        <mxCell id="2KdH2W9au-dCU_cuiKQ8-10" value="+ field: type" style="text;strokeColor=none;fillColor=none;align=left;verticalAlign=top;spacingLeft=4;spacingRight=4;overflow=hidden;rotatable=0;points=[[0,0.5],[1,0.5]];portConstraint=eastwest;rounded=0;" parent="2KdH2W9au-dCU_cuiKQ8-9" vertex="1">
          <mxGeometry y="26" width="160" height="26" as="geometry" />
        </mxCell>
        <mxCell id="2KdH2W9au-dCU_cuiKQ8-11" value="" style="line;strokeWidth=1;fillColor=none;align=left;verticalAlign=middle;spacingTop=-1;spacingLeft=3;spacingRight=3;rotatable=0;labelPosition=right;points=[];portConstraint=eastwest;strokeColor=inherit;rounded=0;" parent="2KdH2W9au-dCU_cuiKQ8-9" vertex="1">
          <mxGeometry y="52" width="160" height="8" as="geometry" />
        </mxCell>
        <mxCell id="2KdH2W9au-dCU_cuiKQ8-12" value="+ method(type): type" style="text;strokeColor=none;fillColor=none;align=left;verticalAlign=top;spacingLeft=4;spacingRight=4;overflow=hidden;rotatable=0;points=[[0,0.5],[1,0.5]];portConstraint=eastwest;rounded=0;" parent="2KdH2W9au-dCU_cuiKQ8-9" vertex="1">
          <mxGeometry y="60" width="160" height="26" as="geometry" />
        </mxCell>
        <mxCell id="2KdH2W9au-dCU_cuiKQ8-13" value="타겟결정" style="swimlane;fontStyle=1;align=center;verticalAlign=top;childLayout=stackLayout;horizontal=1;startSize=26;horizontalStack=0;resizeParent=1;resizeParentMax=0;resizeLast=0;collapsible=1;marginBottom=0;rounded=0;" parent="1" vertex="1">
          <mxGeometry x="418" y="182" width="160" height="86" as="geometry">
            <mxRectangle x="211" y="50" width="103" height="26" as="alternateBounds" />
          </mxGeometry>
        </mxCell>
        <mxCell id="2KdH2W9au-dCU_cuiKQ8-14" value="+ field: type" style="text;strokeColor=none;fillColor=none;align=left;verticalAlign=top;spacingLeft=4;spacingRight=4;overflow=hidden;rotatable=0;points=[[0,0.5],[1,0.5]];portConstraint=eastwest;rounded=0;" parent="2KdH2W9au-dCU_cuiKQ8-13" vertex="1">
          <mxGeometry y="26" width="160" height="26" as="geometry" />
        </mxCell>
        <mxCell id="2KdH2W9au-dCU_cuiKQ8-15" value="" style="line;strokeWidth=1;fillColor=none;align=left;verticalAlign=middle;spacingTop=-1;spacingLeft=3;spacingRight=3;rotatable=0;labelPosition=right;points=[];portConstraint=eastwest;strokeColor=inherit;rounded=0;" parent="2KdH2W9au-dCU_cuiKQ8-13" vertex="1">
          <mxGeometry y="52" width="160" height="8" as="geometry" />
        </mxCell>
        <mxCell id="2KdH2W9au-dCU_cuiKQ8-16" value="+ method(type): type" style="text;strokeColor=none;fillColor=none;align=left;verticalAlign=top;spacingLeft=4;spacingRight=4;overflow=hidden;rotatable=0;points=[[0,0.5],[1,0.5]];portConstraint=eastwest;rounded=0;" parent="2KdH2W9au-dCU_cuiKQ8-13" vertex="1">
          <mxGeometry y="60" width="160" height="26" as="geometry" />
        </mxCell>
        <mxCell id="2KdH2W9au-dCU_cuiKQ8-18" value="스킬1" style="swimlane;fontStyle=1;align=center;verticalAlign=top;childLayout=stackLayout;horizontal=1;startSize=26;horizontalStack=0;resizeParent=1;resizeParentMax=0;resizeLast=0;collapsible=1;marginBottom=0;rounded=0;" parent="1" vertex="1">
          <mxGeometry x="418" y="278" width="160" height="86" as="geometry">
            <mxRectangle x="211" y="50" width="103" height="26" as="alternateBounds" />
          </mxGeometry>
        </mxCell>
        <mxCell id="2KdH2W9au-dCU_cuiKQ8-19" value="+ field: type" style="text;strokeColor=none;fillColor=none;align=left;verticalAlign=top;spacingLeft=4;spacingRight=4;overflow=hidden;rotatable=0;points=[[0,0.5],[1,0.5]];portConstraint=eastwest;rounded=0;" parent="2KdH2W9au-dCU_cuiKQ8-18" vertex="1">
          <mxGeometry y="26" width="160" height="26" as="geometry" />
        </mxCell>
        <mxCell id="2KdH2W9au-dCU_cuiKQ8-20" value="" style="line;strokeWidth=1;fillColor=none;align=left;verticalAlign=middle;spacingTop=-1;spacingLeft=3;spacingRight=3;rotatable=0;labelPosition=right;points=[];portConstraint=eastwest;strokeColor=inherit;rounded=0;" parent="2KdH2W9au-dCU_cuiKQ8-18" vertex="1">
          <mxGeometry y="52" width="160" height="8" as="geometry" />
        </mxCell>
        <mxCell id="2KdH2W9au-dCU_cuiKQ8-21" value="+ method(type): type" style="text;strokeColor=none;fillColor=none;align=left;verticalAlign=top;spacingLeft=4;spacingRight=4;overflow=hidden;rotatable=0;points=[[0,0.5],[1,0.5]];portConstraint=eastwest;rounded=0;" parent="2KdH2W9au-dCU_cuiKQ8-18" vertex="1">
          <mxGeometry y="60" width="160" height="26" as="geometry" />
        </mxCell>
        <mxCell id="2KdH2W9au-dCU_cuiKQ8-28" value="데미지 처리" style="swimlane;fontStyle=1;align=center;verticalAlign=top;childLayout=stackLayout;horizontal=1;startSize=26;horizontalStack=0;resizeParent=1;resizeParentMax=0;resizeLast=0;collapsible=1;marginBottom=0;rounded=0;" parent="1" vertex="1">
          <mxGeometry x="418" y="376" width="160" height="86" as="geometry">
            <mxRectangle x="211" y="50" width="103" height="26" as="alternateBounds" />
          </mxGeometry>
        </mxCell>
        <mxCell id="2KdH2W9au-dCU_cuiKQ8-29" value="+ field: type" style="text;strokeColor=none;fillColor=none;align=left;verticalAlign=top;spacingLeft=4;spacingRight=4;overflow=hidden;rotatable=0;points=[[0,0.5],[1,0.5]];portConstraint=eastwest;rounded=0;" parent="2KdH2W9au-dCU_cuiKQ8-28" vertex="1">
          <mxGeometry y="26" width="160" height="26" as="geometry" />
        </mxCell>
        <mxCell id="2KdH2W9au-dCU_cuiKQ8-30" value="" style="line;strokeWidth=1;fillColor=none;align=left;verticalAlign=middle;spacingTop=-1;spacingLeft=3;spacingRight=3;rotatable=0;labelPosition=right;points=[];portConstraint=eastwest;strokeColor=inherit;rounded=0;" parent="2KdH2W9au-dCU_cuiKQ8-28" vertex="1">
          <mxGeometry y="52" width="160" height="8" as="geometry" />
        </mxCell>
        <mxCell id="2KdH2W9au-dCU_cuiKQ8-31" value="+ method(type): type" style="text;strokeColor=none;fillColor=none;align=left;verticalAlign=top;spacingLeft=4;spacingRight=4;overflow=hidden;rotatable=0;points=[[0,0.5],[1,0.5]];portConstraint=eastwest;rounded=0;" parent="2KdH2W9au-dCU_cuiKQ8-28" vertex="1">
          <mxGeometry y="60" width="160" height="26" as="geometry" />
        </mxCell>
        <mxCell id="2KdH2W9au-dCU_cuiKQ8-39" value="이펙트" style="swimlane;fontStyle=1;align=center;verticalAlign=top;childLayout=stackLayout;horizontal=1;startSize=26;horizontalStack=0;resizeParent=1;resizeParentMax=0;resizeLast=0;collapsible=1;marginBottom=0;rounded=0;" parent="1" vertex="1">
          <mxGeometry x="954" y="89" width="160" height="86" as="geometry">
            <mxRectangle x="211" y="50" width="103" height="26" as="alternateBounds" />
          </mxGeometry>
        </mxCell>
        <mxCell id="2KdH2W9au-dCU_cuiKQ8-40" value="+ field: type" style="text;strokeColor=none;fillColor=none;align=left;verticalAlign=top;spacingLeft=4;spacingRight=4;overflow=hidden;rotatable=0;points=[[0,0.5],[1,0.5]];portConstraint=eastwest;rounded=0;" parent="2KdH2W9au-dCU_cuiKQ8-39" vertex="1">
          <mxGeometry y="26" width="160" height="26" as="geometry" />
        </mxCell>
        <mxCell id="2KdH2W9au-dCU_cuiKQ8-41" value="" style="line;strokeWidth=1;fillColor=none;align=left;verticalAlign=middle;spacingTop=-1;spacingLeft=3;spacingRight=3;rotatable=0;labelPosition=right;points=[];portConstraint=eastwest;strokeColor=inherit;rounded=0;" parent="2KdH2W9au-dCU_cuiKQ8-39" vertex="1">
          <mxGeometry y="52" width="160" height="8" as="geometry" />
        </mxCell>
        <mxCell id="2KdH2W9au-dCU_cuiKQ8-42" value="+ method(type): type" style="text;strokeColor=none;fillColor=none;align=left;verticalAlign=top;spacingLeft=4;spacingRight=4;overflow=hidden;rotatable=0;points=[[0,0.5],[1,0.5]];portConstraint=eastwest;rounded=0;" parent="2KdH2W9au-dCU_cuiKQ8-39" vertex="1">
          <mxGeometry y="60" width="160" height="26" as="geometry" />
        </mxCell>
        <mxCell id="2KdH2W9au-dCU_cuiKQ8-51" value="능력치" style="swimlane;fontStyle=1;align=center;verticalAlign=top;childLayout=stackLayout;horizontal=1;startSize=26;horizontalStack=0;resizeParent=1;resizeParentMax=0;resizeLast=0;collapsible=1;marginBottom=0;rounded=0;" parent="1" vertex="1">
          <mxGeometry x="218" y="18" width="160" height="244" as="geometry">
            <mxRectangle x="211" y="50" width="103" height="26" as="alternateBounds" />
          </mxGeometry>
        </mxCell>
        <mxCell id="2KdH2W9au-dCU_cuiKQ8-52" value="+ level : private byte&#xa;+ Level : public byte [property]&#xa;+ currentHp : private float&#xa;+ maxHp : private float&#xa;+ HP : public float [property]&#xa;+ moveSpeed : private float&#xa;+ attackSpeed : private float&#xa;+ currentExp : private int&#xa;+ maxExp : private int&#xa;+ EXP : public int [property]&#xa;" style="text;strokeColor=none;fillColor=none;align=left;verticalAlign=top;spacingLeft=4;spacingRight=4;overflow=hidden;rotatable=0;points=[[0,0.5],[1,0.5]];portConstraint=eastwest;rounded=0;" parent="2KdH2W9au-dCU_cuiKQ8-51" vertex="1">
          <mxGeometry y="26" width="160" height="156" as="geometry" />
        </mxCell>
        <mxCell id="2KdH2W9au-dCU_cuiKQ8-53" value="" style="line;strokeWidth=1;fillColor=none;align=left;verticalAlign=middle;spacingTop=-1;spacingLeft=3;spacingRight=3;rotatable=0;labelPosition=right;points=[];portConstraint=eastwest;strokeColor=inherit;rounded=0;" parent="2KdH2W9au-dCU_cuiKQ8-51" vertex="1">
          <mxGeometry y="182" width="160" height="8" as="geometry" />
        </mxCell>
        <mxCell id="2KdH2W9au-dCU_cuiKQ8-54" value="+AddHp(float plus) : public void&#xa;+AddExp(int plus): public void&#xa;+LevelUp() : private void" style="text;strokeColor=none;fillColor=none;align=left;verticalAlign=top;spacingLeft=4;spacingRight=4;overflow=hidden;rotatable=0;points=[[0,0.5],[1,0.5]];portConstraint=eastwest;rounded=0;labelBackgroundColor=none;fontStyle=0;fontColor=#000000;" parent="2KdH2W9au-dCU_cuiKQ8-51" vertex="1">
          <mxGeometry y="190" width="160" height="54" as="geometry" />
        </mxCell>
        <mxCell id="2KdH2W9au-dCU_cuiKQ8-55" value="버프" style="swimlane;fontStyle=1;align=center;verticalAlign=top;childLayout=stackLayout;horizontal=1;startSize=26;horizontalStack=0;resizeParent=1;resizeParentMax=0;resizeLast=0;collapsible=1;marginBottom=0;rounded=0;" parent="1" vertex="1">
          <mxGeometry x="789" y="89" width="160" height="86" as="geometry">
            <mxRectangle x="211" y="50" width="103" height="26" as="alternateBounds" />
          </mxGeometry>
        </mxCell>
        <mxCell id="2KdH2W9au-dCU_cuiKQ8-56" value="+ field: type" style="text;strokeColor=none;fillColor=none;align=left;verticalAlign=top;spacingLeft=4;spacingRight=4;overflow=hidden;rotatable=0;points=[[0,0.5],[1,0.5]];portConstraint=eastwest;rounded=0;" parent="2KdH2W9au-dCU_cuiKQ8-55" vertex="1">
          <mxGeometry y="26" width="160" height="26" as="geometry" />
        </mxCell>
        <mxCell id="2KdH2W9au-dCU_cuiKQ8-57" value="" style="line;strokeWidth=1;fillColor=none;align=left;verticalAlign=middle;spacingTop=-1;spacingLeft=3;spacingRight=3;rotatable=0;labelPosition=right;points=[];portConstraint=eastwest;strokeColor=inherit;rounded=0;" parent="2KdH2W9au-dCU_cuiKQ8-55" vertex="1">
          <mxGeometry y="52" width="160" height="8" as="geometry" />
        </mxCell>
        <mxCell id="2KdH2W9au-dCU_cuiKQ8-58" value="+ method(type): type" style="text;strokeColor=none;fillColor=none;align=left;verticalAlign=top;spacingLeft=4;spacingRight=4;overflow=hidden;rotatable=0;points=[[0,0.5],[1,0.5]];portConstraint=eastwest;rounded=0;" parent="2KdH2W9au-dCU_cuiKQ8-55" vertex="1">
          <mxGeometry y="60" width="160" height="26" as="geometry" />
        </mxCell>
        <mxCell id="T9mUNza6fIRcTFa7Orfm-1" value="애니메이터 처리&#xa;" style="swimlane;fontStyle=1;align=center;verticalAlign=top;childLayout=stackLayout;horizontal=1;startSize=26;horizontalStack=0;resizeParent=1;resizeParentMax=0;resizeLast=0;collapsible=1;marginBottom=0;rounded=0;" parent="1" vertex="1">
          <mxGeometry x="954" y="184" width="160" height="86" as="geometry">
            <mxRectangle x="211" y="50" width="103" height="26" as="alternateBounds" />
          </mxGeometry>
        </mxCell>
        <mxCell id="T9mUNza6fIRcTFa7Orfm-2" value="+ field: type" style="text;strokeColor=none;fillColor=none;align=left;verticalAlign=top;spacingLeft=4;spacingRight=4;overflow=hidden;rotatable=0;points=[[0,0.5],[1,0.5]];portConstraint=eastwest;rounded=0;" parent="T9mUNza6fIRcTFa7Orfm-1" vertex="1">
          <mxGeometry y="26" width="160" height="26" as="geometry" />
        </mxCell>
        <mxCell id="T9mUNza6fIRcTFa7Orfm-3" value="" style="line;strokeWidth=1;fillColor=none;align=left;verticalAlign=middle;spacingTop=-1;spacingLeft=3;spacingRight=3;rotatable=0;labelPosition=right;points=[];portConstraint=eastwest;strokeColor=inherit;rounded=0;" parent="T9mUNza6fIRcTFa7Orfm-1" vertex="1">
          <mxGeometry y="52" width="160" height="8" as="geometry" />
        </mxCell>
        <mxCell id="T9mUNza6fIRcTFa7Orfm-4" value="+ method(type): type" style="text;strokeColor=none;fillColor=none;align=left;verticalAlign=top;spacingLeft=4;spacingRight=4;overflow=hidden;rotatable=0;points=[[0,0.5],[1,0.5]];portConstraint=eastwest;rounded=0;" parent="T9mUNza6fIRcTFa7Orfm-1" vertex="1">
          <mxGeometry y="60" width="160" height="26" as="geometry" />
        </mxCell>
        <mxCell id="T9mUNza6fIRcTFa7Orfm-9" value="GameObject&lt;br style=&quot;font-size: 24px;&quot;&gt;enemy" style="html=1;align=left;horizontal=1;verticalAlign=top;fontStyle=3;fontSize=24;movable=0;resizable=0;rotatable=0;deletable=0;editable=0;connectable=0;" parent="1" vertex="1">
          <mxGeometry x="23" y="633" width="1121" height="371" as="geometry" />
        </mxCell>
        <mxCell id="T9mUNza6fIRcTFa7Orfm-10" value="공격" style="swimlane;fontStyle=1;align=center;verticalAlign=top;childLayout=stackLayout;horizontal=1;startSize=26;horizontalStack=0;resizeParent=1;resizeParentMax=0;resizeLast=0;collapsible=1;marginBottom=0;rounded=0;" parent="1" vertex="1">
          <mxGeometry x="679" y="690" width="160" height="86" as="geometry">
            <mxRectangle x="211" y="50" width="103" height="26" as="alternateBounds" />
          </mxGeometry>
        </mxCell>
        <mxCell id="T9mUNza6fIRcTFa7Orfm-11" value="+ field: type" style="text;strokeColor=none;fillColor=none;align=left;verticalAlign=top;spacingLeft=4;spacingRight=4;overflow=hidden;rotatable=0;points=[[0,0.5],[1,0.5]];portConstraint=eastwest;rounded=0;" parent="T9mUNza6fIRcTFa7Orfm-10" vertex="1">
          <mxGeometry y="26" width="160" height="26" as="geometry" />
        </mxCell>
        <mxCell id="T9mUNza6fIRcTFa7Orfm-12" value="" style="line;strokeWidth=1;fillColor=none;align=left;verticalAlign=middle;spacingTop=-1;spacingLeft=3;spacingRight=3;rotatable=0;labelPosition=right;points=[];portConstraint=eastwest;strokeColor=inherit;rounded=0;" parent="T9mUNza6fIRcTFa7Orfm-10" vertex="1">
          <mxGeometry y="52" width="160" height="8" as="geometry" />
        </mxCell>
        <mxCell id="T9mUNza6fIRcTFa7Orfm-13" value="+ method(type): type" style="text;strokeColor=none;fillColor=none;align=left;verticalAlign=top;spacingLeft=4;spacingRight=4;overflow=hidden;rotatable=0;points=[[0,0.5],[1,0.5]];portConstraint=eastwest;rounded=0;" parent="T9mUNza6fIRcTFa7Orfm-10" vertex="1">
          <mxGeometry y="60" width="160" height="26" as="geometry" />
        </mxCell>
        <mxCell id="T9mUNza6fIRcTFa7Orfm-14" value="타겟결정" style="swimlane;fontStyle=1;align=center;verticalAlign=top;childLayout=stackLayout;horizontal=1;startSize=26;horizontalStack=0;resizeParent=1;resizeParentMax=0;resizeLast=0;collapsible=1;marginBottom=0;rounded=0;" parent="1" vertex="1">
          <mxGeometry x="444" y="785" width="160" height="86" as="geometry">
            <mxRectangle x="211" y="50" width="103" height="26" as="alternateBounds" />
          </mxGeometry>
        </mxCell>
        <mxCell id="T9mUNza6fIRcTFa7Orfm-15" value="+ field: type" style="text;strokeColor=none;fillColor=none;align=left;verticalAlign=top;spacingLeft=4;spacingRight=4;overflow=hidden;rotatable=0;points=[[0,0.5],[1,0.5]];portConstraint=eastwest;rounded=0;" parent="T9mUNza6fIRcTFa7Orfm-14" vertex="1">
          <mxGeometry y="26" width="160" height="26" as="geometry" />
        </mxCell>
        <mxCell id="T9mUNza6fIRcTFa7Orfm-16" value="" style="line;strokeWidth=1;fillColor=none;align=left;verticalAlign=middle;spacingTop=-1;spacingLeft=3;spacingRight=3;rotatable=0;labelPosition=right;points=[];portConstraint=eastwest;strokeColor=inherit;rounded=0;" parent="T9mUNza6fIRcTFa7Orfm-14" vertex="1">
          <mxGeometry y="52" width="160" height="8" as="geometry" />
        </mxCell>
        <mxCell id="T9mUNza6fIRcTFa7Orfm-17" value="+ method(type): type" style="text;strokeColor=none;fillColor=none;align=left;verticalAlign=top;spacingLeft=4;spacingRight=4;overflow=hidden;rotatable=0;points=[[0,0.5],[1,0.5]];portConstraint=eastwest;rounded=0;" parent="T9mUNza6fIRcTFa7Orfm-14" vertex="1">
          <mxGeometry y="60" width="160" height="26" as="geometry" />
        </mxCell>
        <mxCell id="T9mUNza6fIRcTFa7Orfm-18" value="스킬" style="swimlane;fontStyle=1;align=center;verticalAlign=top;childLayout=stackLayout;horizontal=1;startSize=26;horizontalStack=0;resizeParent=1;resizeParentMax=0;resizeLast=0;collapsible=1;marginBottom=0;rounded=0;" parent="1" vertex="1">
          <mxGeometry x="687" y="890" width="160" height="86" as="geometry">
            <mxRectangle x="211" y="50" width="103" height="26" as="alternateBounds" />
          </mxGeometry>
        </mxCell>
        <mxCell id="T9mUNza6fIRcTFa7Orfm-19" value="+ field: type" style="text;strokeColor=none;fillColor=none;align=left;verticalAlign=top;spacingLeft=4;spacingRight=4;overflow=hidden;rotatable=0;points=[[0,0.5],[1,0.5]];portConstraint=eastwest;rounded=0;" parent="T9mUNza6fIRcTFa7Orfm-18" vertex="1">
          <mxGeometry y="26" width="160" height="26" as="geometry" />
        </mxCell>
        <mxCell id="T9mUNza6fIRcTFa7Orfm-20" value="" style="line;strokeWidth=1;fillColor=none;align=left;verticalAlign=middle;spacingTop=-1;spacingLeft=3;spacingRight=3;rotatable=0;labelPosition=right;points=[];portConstraint=eastwest;strokeColor=inherit;rounded=0;" parent="T9mUNza6fIRcTFa7Orfm-18" vertex="1">
          <mxGeometry y="52" width="160" height="8" as="geometry" />
        </mxCell>
        <mxCell id="T9mUNza6fIRcTFa7Orfm-21" value="+ method(type): type" style="text;strokeColor=none;fillColor=none;align=left;verticalAlign=top;spacingLeft=4;spacingRight=4;overflow=hidden;rotatable=0;points=[[0,0.5],[1,0.5]];portConstraint=eastwest;rounded=0;" parent="T9mUNza6fIRcTFa7Orfm-18" vertex="1">
          <mxGeometry y="60" width="160" height="26" as="geometry" />
        </mxCell>
        <mxCell id="T9mUNza6fIRcTFa7Orfm-22" value="데미지 처리" style="swimlane;fontStyle=1;align=center;verticalAlign=top;childLayout=stackLayout;horizontal=1;startSize=26;horizontalStack=0;resizeParent=1;resizeParentMax=0;resizeLast=0;collapsible=1;marginBottom=0;rounded=0;" parent="1" vertex="1">
          <mxGeometry x="687" y="794" width="160" height="86" as="geometry">
            <mxRectangle x="211" y="50" width="103" height="26" as="alternateBounds" />
          </mxGeometry>
        </mxCell>
        <mxCell id="T9mUNza6fIRcTFa7Orfm-23" value="+ field: type" style="text;strokeColor=none;fillColor=none;align=left;verticalAlign=top;spacingLeft=4;spacingRight=4;overflow=hidden;rotatable=0;points=[[0,0.5],[1,0.5]];portConstraint=eastwest;rounded=0;" parent="T9mUNza6fIRcTFa7Orfm-22" vertex="1">
          <mxGeometry y="26" width="160" height="26" as="geometry" />
        </mxCell>
        <mxCell id="T9mUNza6fIRcTFa7Orfm-24" value="" style="line;strokeWidth=1;fillColor=none;align=left;verticalAlign=middle;spacingTop=-1;spacingLeft=3;spacingRight=3;rotatable=0;labelPosition=right;points=[];portConstraint=eastwest;strokeColor=inherit;rounded=0;" parent="T9mUNza6fIRcTFa7Orfm-22" vertex="1">
          <mxGeometry y="52" width="160" height="8" as="geometry" />
        </mxCell>
        <mxCell id="T9mUNza6fIRcTFa7Orfm-25" value="+ method(type): type" style="text;strokeColor=none;fillColor=none;align=left;verticalAlign=top;spacingLeft=4;spacingRight=4;overflow=hidden;rotatable=0;points=[[0,0.5],[1,0.5]];portConstraint=eastwest;rounded=0;" parent="T9mUNza6fIRcTFa7Orfm-22" vertex="1">
          <mxGeometry y="60" width="160" height="26" as="geometry" />
        </mxCell>
        <mxCell id="T9mUNza6fIRcTFa7Orfm-26" value="이펙트" style="swimlane;fontStyle=1;align=center;verticalAlign=top;childLayout=stackLayout;horizontal=1;startSize=26;horizontalStack=0;resizeParent=1;resizeParentMax=0;resizeLast=0;collapsible=1;marginBottom=0;rounded=0;" parent="1" vertex="1">
          <mxGeometry x="880" y="800" width="160" height="86" as="geometry">
            <mxRectangle x="211" y="50" width="103" height="26" as="alternateBounds" />
          </mxGeometry>
        </mxCell>
        <mxCell id="T9mUNza6fIRcTFa7Orfm-27" value="+ field: type" style="text;strokeColor=none;fillColor=none;align=left;verticalAlign=top;spacingLeft=4;spacingRight=4;overflow=hidden;rotatable=0;points=[[0,0.5],[1,0.5]];portConstraint=eastwest;rounded=0;" parent="T9mUNza6fIRcTFa7Orfm-26" vertex="1">
          <mxGeometry y="26" width="160" height="26" as="geometry" />
        </mxCell>
        <mxCell id="T9mUNza6fIRcTFa7Orfm-28" value="" style="line;strokeWidth=1;fillColor=none;align=left;verticalAlign=middle;spacingTop=-1;spacingLeft=3;spacingRight=3;rotatable=0;labelPosition=right;points=[];portConstraint=eastwest;strokeColor=inherit;rounded=0;" parent="T9mUNza6fIRcTFa7Orfm-26" vertex="1">
          <mxGeometry y="52" width="160" height="8" as="geometry" />
        </mxCell>
        <mxCell id="T9mUNza6fIRcTFa7Orfm-29" value="+ method(type): type" style="text;strokeColor=none;fillColor=none;align=left;verticalAlign=top;spacingLeft=4;spacingRight=4;overflow=hidden;rotatable=0;points=[[0,0.5],[1,0.5]];portConstraint=eastwest;rounded=0;" parent="T9mUNza6fIRcTFa7Orfm-26" vertex="1">
          <mxGeometry y="60" width="160" height="26" as="geometry" />
        </mxCell>
        <mxCell id="T9mUNza6fIRcTFa7Orfm-30" value="능력치" style="swimlane;fontStyle=1;align=center;verticalAlign=top;childLayout=stackLayout;horizontal=1;startSize=26;horizontalStack=0;resizeParent=1;resizeParentMax=0;resizeLast=0;collapsible=1;marginBottom=0;rounded=0;" parent="1" vertex="1">
          <mxGeometry x="883" y="694" width="160" height="86" as="geometry">
            <mxRectangle x="211" y="50" width="103" height="26" as="alternateBounds" />
          </mxGeometry>
        </mxCell>
        <mxCell id="T9mUNza6fIRcTFa7Orfm-31" value="+ field: type" style="text;strokeColor=none;fillColor=none;align=left;verticalAlign=top;spacingLeft=4;spacingRight=4;overflow=hidden;rotatable=0;points=[[0,0.5],[1,0.5]];portConstraint=eastwest;rounded=0;" parent="T9mUNza6fIRcTFa7Orfm-30" vertex="1">
          <mxGeometry y="26" width="160" height="26" as="geometry" />
        </mxCell>
        <mxCell id="T9mUNza6fIRcTFa7Orfm-32" value="" style="line;strokeWidth=1;fillColor=none;align=left;verticalAlign=middle;spacingTop=-1;spacingLeft=3;spacingRight=3;rotatable=0;labelPosition=right;points=[];portConstraint=eastwest;strokeColor=inherit;rounded=0;" parent="T9mUNza6fIRcTFa7Orfm-30" vertex="1">
          <mxGeometry y="52" width="160" height="8" as="geometry" />
        </mxCell>
        <mxCell id="T9mUNza6fIRcTFa7Orfm-33" value="+ method(type): type" style="text;strokeColor=none;fillColor=none;align=left;verticalAlign=top;spacingLeft=4;spacingRight=4;overflow=hidden;rotatable=0;points=[[0,0.5],[1,0.5]];portConstraint=eastwest;rounded=0;" parent="T9mUNza6fIRcTFa7Orfm-30" vertex="1">
          <mxGeometry y="60" width="160" height="26" as="geometry" />
        </mxCell>
        <mxCell id="T9mUNza6fIRcTFa7Orfm-34" value="애니메이터 처리&#xa;" style="swimlane;fontStyle=1;align=center;verticalAlign=top;childLayout=stackLayout;horizontal=1;startSize=26;horizontalStack=0;resizeParent=1;resizeParentMax=0;resizeLast=0;collapsible=1;marginBottom=0;rounded=0;" parent="1" vertex="1">
          <mxGeometry x="251" y="787" width="160" height="86" as="geometry">
            <mxRectangle x="211" y="50" width="103" height="26" as="alternateBounds" />
          </mxGeometry>
        </mxCell>
        <mxCell id="T9mUNza6fIRcTFa7Orfm-35" value="+ field: type" style="text;strokeColor=none;fillColor=none;align=left;verticalAlign=top;spacingLeft=4;spacingRight=4;overflow=hidden;rotatable=0;points=[[0,0.5],[1,0.5]];portConstraint=eastwest;rounded=0;" parent="T9mUNza6fIRcTFa7Orfm-34" vertex="1">
          <mxGeometry y="26" width="160" height="26" as="geometry" />
        </mxCell>
        <mxCell id="T9mUNza6fIRcTFa7Orfm-36" value="" style="line;strokeWidth=1;fillColor=none;align=left;verticalAlign=middle;spacingTop=-1;spacingLeft=3;spacingRight=3;rotatable=0;labelPosition=right;points=[];portConstraint=eastwest;strokeColor=inherit;rounded=0;" parent="T9mUNza6fIRcTFa7Orfm-34" vertex="1">
          <mxGeometry y="52" width="160" height="8" as="geometry" />
        </mxCell>
        <mxCell id="T9mUNza6fIRcTFa7Orfm-37" value="+ method(type): type" style="text;strokeColor=none;fillColor=none;align=left;verticalAlign=top;spacingLeft=4;spacingRight=4;overflow=hidden;rotatable=0;points=[[0,0.5],[1,0.5]];portConstraint=eastwest;rounded=0;" parent="T9mUNza6fIRcTFa7Orfm-34" vertex="1">
          <mxGeometry y="60" width="160" height="26" as="geometry" />
        </mxCell>
        <mxCell id="T9mUNza6fIRcTFa7Orfm-38" value="생성 ,초기화 삭제" style="swimlane;fontStyle=1;align=center;verticalAlign=top;childLayout=stackLayout;horizontal=1;startSize=26;horizontalStack=0;resizeParent=1;resizeParentMax=0;resizeLast=0;collapsible=1;marginBottom=0;rounded=0;" parent="1" vertex="1">
          <mxGeometry x="38" y="703" width="160" height="86" as="geometry">
            <mxRectangle x="60" y="50" width="103" height="26" as="alternateBounds" />
          </mxGeometry>
        </mxCell>
        <mxCell id="T9mUNza6fIRcTFa7Orfm-39" value="+ field: type" style="text;strokeColor=none;fillColor=none;align=left;verticalAlign=top;spacingLeft=4;spacingRight=4;overflow=hidden;rotatable=0;points=[[0,0.5],[1,0.5]];portConstraint=eastwest;rounded=0;" parent="T9mUNza6fIRcTFa7Orfm-38" vertex="1">
          <mxGeometry y="26" width="160" height="26" as="geometry" />
        </mxCell>
        <mxCell id="T9mUNza6fIRcTFa7Orfm-40" value="" style="line;strokeWidth=1;fillColor=none;align=left;verticalAlign=middle;spacingTop=-1;spacingLeft=3;spacingRight=3;rotatable=0;labelPosition=right;points=[];portConstraint=eastwest;strokeColor=inherit;rounded=0;" parent="T9mUNza6fIRcTFa7Orfm-38" vertex="1">
          <mxGeometry y="52" width="160" height="8" as="geometry" />
        </mxCell>
        <mxCell id="T9mUNza6fIRcTFa7Orfm-41" value="+ method(type): type" style="text;strokeColor=none;fillColor=none;align=left;verticalAlign=top;spacingLeft=4;spacingRight=4;overflow=hidden;rotatable=0;points=[[0,0.5],[1,0.5]];portConstraint=eastwest;rounded=0;" parent="T9mUNza6fIRcTFa7Orfm-38" vertex="1">
          <mxGeometry y="60" width="160" height="26" as="geometry" />
        </mxCell>
        <mxCell id="T9mUNza6fIRcTFa7Orfm-46" value="충돌처리" style="swimlane;fontStyle=1;align=center;verticalAlign=top;childLayout=stackLayout;horizontal=1;startSize=26;horizontalStack=0;resizeParent=1;resizeParentMax=0;resizeLast=0;collapsible=1;marginBottom=0;rounded=0;" parent="1" vertex="1">
          <mxGeometry x="251" y="696" width="160" height="86" as="geometry">
            <mxRectangle x="211" y="50" width="103" height="26" as="alternateBounds" />
          </mxGeometry>
        </mxCell>
        <mxCell id="T9mUNza6fIRcTFa7Orfm-47" value="+ field: type" style="text;strokeColor=none;fillColor=none;align=left;verticalAlign=top;spacingLeft=4;spacingRight=4;overflow=hidden;rotatable=0;points=[[0,0.5],[1,0.5]];portConstraint=eastwest;rounded=0;" parent="T9mUNza6fIRcTFa7Orfm-46" vertex="1">
          <mxGeometry y="26" width="160" height="26" as="geometry" />
        </mxCell>
        <mxCell id="T9mUNza6fIRcTFa7Orfm-48" value="" style="line;strokeWidth=1;fillColor=none;align=left;verticalAlign=middle;spacingTop=-1;spacingLeft=3;spacingRight=3;rotatable=0;labelPosition=right;points=[];portConstraint=eastwest;strokeColor=inherit;rounded=0;" parent="T9mUNza6fIRcTFa7Orfm-46" vertex="1">
          <mxGeometry y="52" width="160" height="8" as="geometry" />
        </mxCell>
        <mxCell id="T9mUNza6fIRcTFa7Orfm-49" value="+ method(type): type" style="text;strokeColor=none;fillColor=none;align=left;verticalAlign=top;spacingLeft=4;spacingRight=4;overflow=hidden;rotatable=0;points=[[0,0.5],[1,0.5]];portConstraint=eastwest;rounded=0;" parent="T9mUNza6fIRcTFa7Orfm-46" vertex="1">
          <mxGeometry y="60" width="160" height="26" as="geometry" />
        </mxCell>
        <mxCell id="T9mUNza6fIRcTFa7Orfm-50" value="이동" style="swimlane;fontStyle=1;align=center;verticalAlign=top;childLayout=stackLayout;horizontal=1;startSize=26;horizontalStack=0;resizeParent=1;resizeParentMax=0;resizeLast=0;collapsible=1;marginBottom=0;rounded=0;" parent="1" vertex="1">
          <mxGeometry x="444" y="690" width="160" height="86" as="geometry">
            <mxRectangle x="60" y="50" width="103" height="26" as="alternateBounds" />
          </mxGeometry>
        </mxCell>
        <mxCell id="T9mUNza6fIRcTFa7Orfm-51" value="+ field: type" style="text;strokeColor=none;fillColor=none;align=left;verticalAlign=top;spacingLeft=4;spacingRight=4;overflow=hidden;rotatable=0;points=[[0,0.5],[1,0.5]];portConstraint=eastwest;rounded=0;" parent="T9mUNza6fIRcTFa7Orfm-50" vertex="1">
          <mxGeometry y="26" width="160" height="26" as="geometry" />
        </mxCell>
        <mxCell id="T9mUNza6fIRcTFa7Orfm-52" value="" style="line;strokeWidth=1;fillColor=none;align=left;verticalAlign=middle;spacingTop=-1;spacingLeft=3;spacingRight=3;rotatable=0;labelPosition=right;points=[];portConstraint=eastwest;strokeColor=inherit;rounded=0;" parent="T9mUNza6fIRcTFa7Orfm-50" vertex="1">
          <mxGeometry y="52" width="160" height="8" as="geometry" />
        </mxCell>
        <mxCell id="T9mUNza6fIRcTFa7Orfm-53" value="+ method(type): type" style="text;strokeColor=none;fillColor=none;align=left;verticalAlign=top;spacingLeft=4;spacingRight=4;overflow=hidden;rotatable=0;points=[[0,0.5],[1,0.5]];portConstraint=eastwest;rounded=0;" parent="T9mUNza6fIRcTFa7Orfm-50" vertex="1">
          <mxGeometry y="60" width="160" height="26" as="geometry" />
        </mxCell>
        <mxCell id="T9mUNza6fIRcTFa7Orfm-54" value="GameObject&lt;br style=&quot;font-size: 24px;&quot;&gt;Ui&lt;br&gt;" style="html=1;align=left;horizontal=1;verticalAlign=top;fontStyle=3;fontSize=24;movable=0;resizable=0;rotatable=0;deletable=0;editable=0;connectable=0;locked=1;" parent="1" vertex="1">
          <mxGeometry x="25" y="1274" width="1121" height="339" as="geometry" />
        </mxCell>
        <mxCell id="T9mUNza6fIRcTFa7Orfm-55" value="로그인 로그아웃&#xa;" style="swimlane;fontStyle=1;align=center;verticalAlign=top;childLayout=stackLayout;horizontal=1;startSize=26;horizontalStack=0;resizeParent=1;resizeParentMax=0;resizeLast=0;collapsible=1;marginBottom=0;rounded=0;" parent="1" vertex="1">
          <mxGeometry x="159" y="1304" width="160" height="86" as="geometry">
            <mxRectangle x="211" y="50" width="103" height="26" as="alternateBounds" />
          </mxGeometry>
        </mxCell>
        <mxCell id="T9mUNza6fIRcTFa7Orfm-56" value="+ field: type" style="text;strokeColor=none;fillColor=none;align=left;verticalAlign=top;spacingLeft=4;spacingRight=4;overflow=hidden;rotatable=0;points=[[0,0.5],[1,0.5]];portConstraint=eastwest;rounded=0;" parent="T9mUNza6fIRcTFa7Orfm-55" vertex="1">
          <mxGeometry y="26" width="160" height="26" as="geometry" />
        </mxCell>
        <mxCell id="T9mUNza6fIRcTFa7Orfm-57" value="" style="line;strokeWidth=1;fillColor=none;align=left;verticalAlign=middle;spacingTop=-1;spacingLeft=3;spacingRight=3;rotatable=0;labelPosition=right;points=[];portConstraint=eastwest;strokeColor=inherit;rounded=0;" parent="T9mUNza6fIRcTFa7Orfm-55" vertex="1">
          <mxGeometry y="52" width="160" height="8" as="geometry" />
        </mxCell>
        <mxCell id="T9mUNza6fIRcTFa7Orfm-58" value="+ method(type): type" style="text;strokeColor=none;fillColor=none;align=left;verticalAlign=top;spacingLeft=4;spacingRight=4;overflow=hidden;rotatable=0;points=[[0,0.5],[1,0.5]];portConstraint=eastwest;rounded=0;" parent="T9mUNza6fIRcTFa7Orfm-55" vertex="1">
          <mxGeometry y="60" width="160" height="26" as="geometry" />
        </mxCell>
        <mxCell id="T9mUNza6fIRcTFa7Orfm-59" value="계정 생성 삭제" style="swimlane;fontStyle=1;align=center;verticalAlign=top;childLayout=stackLayout;horizontal=1;startSize=26;horizontalStack=0;resizeParent=1;resizeParentMax=0;resizeLast=0;collapsible=1;marginBottom=0;rounded=0;" parent="1" vertex="1">
          <mxGeometry x="351" y="1298" width="160" height="86" as="geometry">
            <mxRectangle x="211" y="50" width="103" height="26" as="alternateBounds" />
          </mxGeometry>
        </mxCell>
        <mxCell id="T9mUNza6fIRcTFa7Orfm-60" value="+ field: type" style="text;strokeColor=none;fillColor=none;align=left;verticalAlign=top;spacingLeft=4;spacingRight=4;overflow=hidden;rotatable=0;points=[[0,0.5],[1,0.5]];portConstraint=eastwest;rounded=0;" parent="T9mUNza6fIRcTFa7Orfm-59" vertex="1">
          <mxGeometry y="26" width="160" height="26" as="geometry" />
        </mxCell>
        <mxCell id="T9mUNza6fIRcTFa7Orfm-61" value="" style="line;strokeWidth=1;fillColor=none;align=left;verticalAlign=middle;spacingTop=-1;spacingLeft=3;spacingRight=3;rotatable=0;labelPosition=right;points=[];portConstraint=eastwest;strokeColor=inherit;rounded=0;" parent="T9mUNza6fIRcTFa7Orfm-59" vertex="1">
          <mxGeometry y="52" width="160" height="8" as="geometry" />
        </mxCell>
        <mxCell id="T9mUNza6fIRcTFa7Orfm-62" value="+ method(type): type" style="text;strokeColor=none;fillColor=none;align=left;verticalAlign=top;spacingLeft=4;spacingRight=4;overflow=hidden;rotatable=0;points=[[0,0.5],[1,0.5]];portConstraint=eastwest;rounded=0;" parent="T9mUNza6fIRcTFa7Orfm-59" vertex="1">
          <mxGeometry y="60" width="160" height="26" as="geometry" />
        </mxCell>
        <mxCell id="T9mUNza6fIRcTFa7Orfm-63" value="캐릭터 셍성, 삭제" style="swimlane;fontStyle=1;align=center;verticalAlign=top;childLayout=stackLayout;horizontal=1;startSize=26;horizontalStack=0;resizeParent=1;resizeParentMax=0;resizeLast=0;collapsible=1;marginBottom=0;rounded=0;" parent="1" vertex="1">
          <mxGeometry x="159" y="1395" width="160" height="86" as="geometry">
            <mxRectangle x="211" y="50" width="103" height="26" as="alternateBounds" />
          </mxGeometry>
        </mxCell>
        <mxCell id="T9mUNza6fIRcTFa7Orfm-64" value="+ field: type" style="text;strokeColor=none;fillColor=none;align=left;verticalAlign=top;spacingLeft=4;spacingRight=4;overflow=hidden;rotatable=0;points=[[0,0.5],[1,0.5]];portConstraint=eastwest;rounded=0;" parent="T9mUNza6fIRcTFa7Orfm-63" vertex="1">
          <mxGeometry y="26" width="160" height="26" as="geometry" />
        </mxCell>
        <mxCell id="T9mUNza6fIRcTFa7Orfm-65" value="" style="line;strokeWidth=1;fillColor=none;align=left;verticalAlign=middle;spacingTop=-1;spacingLeft=3;spacingRight=3;rotatable=0;labelPosition=right;points=[];portConstraint=eastwest;strokeColor=inherit;rounded=0;" parent="T9mUNza6fIRcTFa7Orfm-63" vertex="1">
          <mxGeometry y="52" width="160" height="8" as="geometry" />
        </mxCell>
        <mxCell id="T9mUNza6fIRcTFa7Orfm-66" value="+ method(type): type" style="text;strokeColor=none;fillColor=none;align=left;verticalAlign=top;spacingLeft=4;spacingRight=4;overflow=hidden;rotatable=0;points=[[0,0.5],[1,0.5]];portConstraint=eastwest;rounded=0;" parent="T9mUNza6fIRcTFa7Orfm-63" vertex="1">
          <mxGeometry y="60" width="160" height="26" as="geometry" />
        </mxCell>
        <mxCell id="T9mUNza6fIRcTFa7Orfm-67" value="게임 종료" style="swimlane;fontStyle=1;align=center;verticalAlign=top;childLayout=stackLayout;horizontal=1;startSize=26;horizontalStack=0;resizeParent=1;resizeParentMax=0;resizeLast=0;collapsible=1;marginBottom=0;rounded=0;" parent="1" vertex="1">
          <mxGeometry x="351" y="1395" width="160" height="86" as="geometry">
            <mxRectangle x="211" y="50" width="103" height="26" as="alternateBounds" />
          </mxGeometry>
        </mxCell>
        <mxCell id="T9mUNza6fIRcTFa7Orfm-68" value="+ field: type" style="text;strokeColor=none;fillColor=none;align=left;verticalAlign=top;spacingLeft=4;spacingRight=4;overflow=hidden;rotatable=0;points=[[0,0.5],[1,0.5]];portConstraint=eastwest;rounded=0;" parent="T9mUNza6fIRcTFa7Orfm-67" vertex="1">
          <mxGeometry y="26" width="160" height="26" as="geometry" />
        </mxCell>
        <mxCell id="T9mUNza6fIRcTFa7Orfm-69" value="" style="line;strokeWidth=1;fillColor=none;align=left;verticalAlign=middle;spacingTop=-1;spacingLeft=3;spacingRight=3;rotatable=0;labelPosition=right;points=[];portConstraint=eastwest;strokeColor=inherit;rounded=0;" parent="T9mUNza6fIRcTFa7Orfm-67" vertex="1">
          <mxGeometry y="52" width="160" height="8" as="geometry" />
        </mxCell>
        <mxCell id="T9mUNza6fIRcTFa7Orfm-70" value="+ method(type): type" style="text;strokeColor=none;fillColor=none;align=left;verticalAlign=top;spacingLeft=4;spacingRight=4;overflow=hidden;rotatable=0;points=[[0,0.5],[1,0.5]];portConstraint=eastwest;rounded=0;" parent="T9mUNza6fIRcTFa7Orfm-67" vertex="1">
          <mxGeometry y="60" width="160" height="26" as="geometry" />
        </mxCell>
        <mxCell id="T9mUNza6fIRcTFa7Orfm-71" value="게임설정" style="swimlane;fontStyle=1;align=center;verticalAlign=top;childLayout=stackLayout;horizontal=1;startSize=26;horizontalStack=0;resizeParent=1;resizeParentMax=0;resizeLast=0;collapsible=1;marginBottom=0;rounded=0;" parent="1" vertex="1">
          <mxGeometry x="530.5" y="1295" width="160" height="86" as="geometry">
            <mxRectangle x="211" y="50" width="103" height="26" as="alternateBounds" />
          </mxGeometry>
        </mxCell>
        <mxCell id="T9mUNza6fIRcTFa7Orfm-72" value="+ field: type" style="text;strokeColor=none;fillColor=none;align=left;verticalAlign=top;spacingLeft=4;spacingRight=4;overflow=hidden;rotatable=0;points=[[0,0.5],[1,0.5]];portConstraint=eastwest;rounded=0;" parent="T9mUNza6fIRcTFa7Orfm-71" vertex="1">
          <mxGeometry y="26" width="160" height="26" as="geometry" />
        </mxCell>
        <mxCell id="T9mUNza6fIRcTFa7Orfm-73" value="" style="line;strokeWidth=1;fillColor=none;align=left;verticalAlign=middle;spacingTop=-1;spacingLeft=3;spacingRight=3;rotatable=0;labelPosition=right;points=[];portConstraint=eastwest;strokeColor=inherit;rounded=0;" parent="T9mUNza6fIRcTFa7Orfm-71" vertex="1">
          <mxGeometry y="52" width="160" height="8" as="geometry" />
        </mxCell>
        <mxCell id="T9mUNza6fIRcTFa7Orfm-74" value="+ method(type): type" style="text;strokeColor=none;fillColor=none;align=left;verticalAlign=top;spacingLeft=4;spacingRight=4;overflow=hidden;rotatable=0;points=[[0,0.5],[1,0.5]];portConstraint=eastwest;rounded=0;" parent="T9mUNza6fIRcTFa7Orfm-71" vertex="1">
          <mxGeometry y="60" width="160" height="26" as="geometry" />
        </mxCell>
        <mxCell id="T9mUNza6fIRcTFa7Orfm-75" value="hp바 " style="swimlane;fontStyle=1;align=center;verticalAlign=top;childLayout=stackLayout;horizontal=1;startSize=26;horizontalStack=0;resizeParent=1;resizeParentMax=0;resizeLast=0;collapsible=1;marginBottom=0;rounded=0;" parent="1" vertex="1">
          <mxGeometry x="530.5" y="1400.5" width="160" height="86" as="geometry">
            <mxRectangle x="211" y="50" width="103" height="26" as="alternateBounds" />
          </mxGeometry>
        </mxCell>
        <mxCell id="T9mUNza6fIRcTFa7Orfm-76" value="+ field: type" style="text;strokeColor=none;fillColor=none;align=left;verticalAlign=top;spacingLeft=4;spacingRight=4;overflow=hidden;rotatable=0;points=[[0,0.5],[1,0.5]];portConstraint=eastwest;rounded=0;" parent="T9mUNza6fIRcTFa7Orfm-75" vertex="1">
          <mxGeometry y="26" width="160" height="26" as="geometry" />
        </mxCell>
        <mxCell id="T9mUNza6fIRcTFa7Orfm-77" value="" style="line;strokeWidth=1;fillColor=none;align=left;verticalAlign=middle;spacingTop=-1;spacingLeft=3;spacingRight=3;rotatable=0;labelPosition=right;points=[];portConstraint=eastwest;strokeColor=inherit;rounded=0;" parent="T9mUNza6fIRcTFa7Orfm-75" vertex="1">
          <mxGeometry y="52" width="160" height="8" as="geometry" />
        </mxCell>
        <mxCell id="T9mUNza6fIRcTFa7Orfm-78" value="+ method(type): type" style="text;strokeColor=none;fillColor=none;align=left;verticalAlign=top;spacingLeft=4;spacingRight=4;overflow=hidden;rotatable=0;points=[[0,0.5],[1,0.5]];portConstraint=eastwest;rounded=0;" parent="T9mUNza6fIRcTFa7Orfm-75" vertex="1">
          <mxGeometry y="60" width="160" height="26" as="geometry" />
        </mxCell>
        <mxCell id="T9mUNza6fIRcTFa7Orfm-79" value="이미지 출력 효과" style="swimlane;fontStyle=1;align=center;verticalAlign=top;childLayout=stackLayout;horizontal=1;startSize=26;horizontalStack=0;resizeParent=1;resizeParentMax=0;resizeLast=0;collapsible=1;marginBottom=0;rounded=0;" parent="1" vertex="1">
          <mxGeometry x="716" y="1295" width="160" height="86" as="geometry">
            <mxRectangle x="211" y="50" width="103" height="26" as="alternateBounds" />
          </mxGeometry>
        </mxCell>
        <mxCell id="T9mUNza6fIRcTFa7Orfm-80" value="+ field: type" style="text;strokeColor=none;fillColor=none;align=left;verticalAlign=top;spacingLeft=4;spacingRight=4;overflow=hidden;rotatable=0;points=[[0,0.5],[1,0.5]];portConstraint=eastwest;rounded=0;" parent="T9mUNza6fIRcTFa7Orfm-79" vertex="1">
          <mxGeometry y="26" width="160" height="26" as="geometry" />
        </mxCell>
        <mxCell id="T9mUNza6fIRcTFa7Orfm-81" value="" style="line;strokeWidth=1;fillColor=none;align=left;verticalAlign=middle;spacingTop=-1;spacingLeft=3;spacingRight=3;rotatable=0;labelPosition=right;points=[];portConstraint=eastwest;strokeColor=inherit;rounded=0;" parent="T9mUNza6fIRcTFa7Orfm-79" vertex="1">
          <mxGeometry y="52" width="160" height="8" as="geometry" />
        </mxCell>
        <mxCell id="T9mUNza6fIRcTFa7Orfm-82" value="+ method(type): type" style="text;strokeColor=none;fillColor=none;align=left;verticalAlign=top;spacingLeft=4;spacingRight=4;overflow=hidden;rotatable=0;points=[[0,0.5],[1,0.5]];portConstraint=eastwest;rounded=0;" parent="T9mUNza6fIRcTFa7Orfm-79" vertex="1">
          <mxGeometry y="60" width="160" height="26" as="geometry" />
        </mxCell>
        <mxCell id="T9mUNza6fIRcTFa7Orfm-83" value="텍스트 출력 효과" style="swimlane;fontStyle=1;align=center;verticalAlign=top;childLayout=stackLayout;horizontal=1;startSize=26;horizontalStack=0;resizeParent=1;resizeParentMax=0;resizeLast=0;collapsible=1;marginBottom=0;rounded=0;" parent="1" vertex="1">
          <mxGeometry x="895" y="1295" width="160" height="86" as="geometry">
            <mxRectangle x="211" y="50" width="103" height="26" as="alternateBounds" />
          </mxGeometry>
        </mxCell>
        <mxCell id="T9mUNza6fIRcTFa7Orfm-84" value="+ field: type" style="text;strokeColor=none;fillColor=none;align=left;verticalAlign=top;spacingLeft=4;spacingRight=4;overflow=hidden;rotatable=0;points=[[0,0.5],[1,0.5]];portConstraint=eastwest;rounded=0;" parent="T9mUNza6fIRcTFa7Orfm-83" vertex="1">
          <mxGeometry y="26" width="160" height="26" as="geometry" />
        </mxCell>
        <mxCell id="T9mUNza6fIRcTFa7Orfm-85" value="" style="line;strokeWidth=1;fillColor=none;align=left;verticalAlign=middle;spacingTop=-1;spacingLeft=3;spacingRight=3;rotatable=0;labelPosition=right;points=[];portConstraint=eastwest;strokeColor=inherit;rounded=0;" parent="T9mUNza6fIRcTFa7Orfm-83" vertex="1">
          <mxGeometry y="52" width="160" height="8" as="geometry" />
        </mxCell>
        <mxCell id="T9mUNza6fIRcTFa7Orfm-86" value="+ method(type): type" style="text;strokeColor=none;fillColor=none;align=left;verticalAlign=top;spacingLeft=4;spacingRight=4;overflow=hidden;rotatable=0;points=[[0,0.5],[1,0.5]];portConstraint=eastwest;rounded=0;" parent="T9mUNza6fIRcTFa7Orfm-83" vertex="1">
          <mxGeometry y="60" width="160" height="26" as="geometry" />
        </mxCell>
        <mxCell id="T9mUNza6fIRcTFa7Orfm-87" value="버튼 출력 효과" style="swimlane;fontStyle=1;align=center;verticalAlign=top;childLayout=stackLayout;horizontal=1;startSize=26;horizontalStack=0;resizeParent=1;resizeParentMax=0;resizeLast=0;collapsible=1;marginBottom=0;rounded=0;" parent="1" vertex="1">
          <mxGeometry x="716" y="1398" width="160" height="86" as="geometry">
            <mxRectangle x="211" y="50" width="103" height="26" as="alternateBounds" />
          </mxGeometry>
        </mxCell>
        <mxCell id="T9mUNza6fIRcTFa7Orfm-88" value="+ field: type" style="text;strokeColor=none;fillColor=none;align=left;verticalAlign=top;spacingLeft=4;spacingRight=4;overflow=hidden;rotatable=0;points=[[0,0.5],[1,0.5]];portConstraint=eastwest;rounded=0;" parent="T9mUNza6fIRcTFa7Orfm-87" vertex="1">
          <mxGeometry y="26" width="160" height="26" as="geometry" />
        </mxCell>
        <mxCell id="T9mUNza6fIRcTFa7Orfm-89" value="" style="line;strokeWidth=1;fillColor=none;align=left;verticalAlign=middle;spacingTop=-1;spacingLeft=3;spacingRight=3;rotatable=0;labelPosition=right;points=[];portConstraint=eastwest;strokeColor=inherit;rounded=0;" parent="T9mUNza6fIRcTFa7Orfm-87" vertex="1">
          <mxGeometry y="52" width="160" height="8" as="geometry" />
        </mxCell>
        <mxCell id="T9mUNza6fIRcTFa7Orfm-90" value="+ method(type): type" style="text;strokeColor=none;fillColor=none;align=left;verticalAlign=top;spacingLeft=4;spacingRight=4;overflow=hidden;rotatable=0;points=[[0,0.5],[1,0.5]];portConstraint=eastwest;rounded=0;" parent="T9mUNza6fIRcTFa7Orfm-87" vertex="1">
          <mxGeometry y="60" width="160" height="26" as="geometry" />
        </mxCell>
        <mxCell id="T9mUNza6fIRcTFa7Orfm-92" value="GameObject&lt;br style=&quot;font-size: 24px;&quot;&gt;item" style="html=1;align=left;horizontal=1;verticalAlign=top;fontStyle=3;fontSize=24;movable=0;resizable=0;rotatable=0;deletable=0;editable=0;connectable=0;locked=1;" parent="1" vertex="1">
          <mxGeometry x="25" y="1634" width="1121" height="318" as="geometry" />
        </mxCell>
        <mxCell id="T9mUNza6fIRcTFa7Orfm-94" value="아이템(ItemBase)" style="swimlane;fontStyle=1;align=center;verticalAlign=top;childLayout=stackLayout;horizontal=1;startSize=26;horizontalStack=0;resizeParent=1;resizeParentMax=0;resizeLast=0;collapsible=1;marginBottom=0;rounded=0;fillColor=#e1d5e7;strokeColor=#9673a6;" parent="1" vertex="1">
          <mxGeometry x="278" y="1644" width="160" height="130" as="geometry">
            <mxRectangle x="211" y="50" width="103" height="26" as="alternateBounds" />
          </mxGeometry>
        </mxCell>
        <mxCell id="T9mUNza6fIRcTFa7Orfm-95" value="+ moveSpeed : private float&#xa;+ itemScore : privatae int&#xa;+ ItemScore : protected int&#xa;+ frequency : private float" style="text;strokeColor=none;fillColor=none;align=left;verticalAlign=top;spacingLeft=4;spacingRight=4;overflow=hidden;rotatable=0;points=[[0,0.5],[1,0.5]];portConstraint=eastwest;rounded=0;" parent="T9mUNza6fIRcTFa7Orfm-94" vertex="1">
          <mxGeometry y="26" width="160" height="70" as="geometry" />
        </mxCell>
        <mxCell id="T9mUNza6fIRcTFa7Orfm-96" value="" style="line;strokeWidth=1;fillColor=none;align=left;verticalAlign=middle;spacingTop=-1;spacingLeft=3;spacingRight=3;rotatable=0;labelPosition=right;points=[];portConstraint=eastwest;strokeColor=inherit;rounded=0;" parent="T9mUNza6fIRcTFa7Orfm-94" vertex="1">
          <mxGeometry y="96" width="160" height="8" as="geometry" />
        </mxCell>
        <mxCell id="T9mUNza6fIRcTFa7Orfm-97" value="+ GetEffect() : protected void" style="text;strokeColor=none;fillColor=none;align=left;verticalAlign=top;spacingLeft=4;spacingRight=4;overflow=hidden;rotatable=0;points=[[0,0.5],[1,0.5]];portConstraint=eastwest;rounded=0;" parent="T9mUNza6fIRcTFa7Orfm-94" vertex="1">
          <mxGeometry y="104" width="160" height="26" as="geometry" />
        </mxCell>
        <mxCell id="T9mUNza6fIRcTFa7Orfm-98" value="이속" style="swimlane;fontStyle=1;align=center;verticalAlign=top;childLayout=stackLayout;horizontal=1;startSize=26;horizontalStack=0;resizeParent=1;resizeParentMax=0;resizeLast=0;collapsible=1;marginBottom=0;rounded=0;" parent="1" vertex="1">
          <mxGeometry x="794" y="1849" width="160" height="86" as="geometry">
            <mxRectangle x="211" y="50" width="103" height="26" as="alternateBounds" />
          </mxGeometry>
        </mxCell>
        <mxCell id="T9mUNza6fIRcTFa7Orfm-99" value="+ field: type" style="text;strokeColor=none;fillColor=none;align=left;verticalAlign=top;spacingLeft=4;spacingRight=4;overflow=hidden;rotatable=0;points=[[0,0.5],[1,0.5]];portConstraint=eastwest;rounded=0;" parent="T9mUNza6fIRcTFa7Orfm-98" vertex="1">
          <mxGeometry y="26" width="160" height="26" as="geometry" />
        </mxCell>
        <mxCell id="T9mUNza6fIRcTFa7Orfm-100" value="" style="line;strokeWidth=1;fillColor=none;align=left;verticalAlign=middle;spacingTop=-1;spacingLeft=3;spacingRight=3;rotatable=0;labelPosition=right;points=[];portConstraint=eastwest;strokeColor=inherit;rounded=0;" parent="T9mUNza6fIRcTFa7Orfm-98" vertex="1">
          <mxGeometry y="52" width="160" height="8" as="geometry" />
        </mxCell>
        <mxCell id="T9mUNza6fIRcTFa7Orfm-101" value="+ method(type): type" style="text;strokeColor=none;fillColor=none;align=left;verticalAlign=top;spacingLeft=4;spacingRight=4;overflow=hidden;rotatable=0;points=[[0,0.5],[1,0.5]];portConstraint=eastwest;rounded=0;" parent="T9mUNza6fIRcTFa7Orfm-98" vertex="1">
          <mxGeometry y="60" width="160" height="26" as="geometry" />
        </mxCell>
        <mxCell id="T9mUNza6fIRcTFa7Orfm-102" value="무적" style="swimlane;fontStyle=1;align=center;verticalAlign=top;childLayout=stackLayout;horizontal=1;startSize=26;horizontalStack=0;resizeParent=1;resizeParentMax=0;resizeLast=0;collapsible=1;marginBottom=0;rounded=0;" parent="1" vertex="1">
          <mxGeometry x="984" y="1849" width="160" height="86" as="geometry">
            <mxRectangle x="211" y="50" width="103" height="26" as="alternateBounds" />
          </mxGeometry>
        </mxCell>
        <mxCell id="T9mUNza6fIRcTFa7Orfm-104" value="" style="line;strokeWidth=1;fillColor=none;align=left;verticalAlign=middle;spacingTop=-1;spacingLeft=3;spacingRight=3;rotatable=0;labelPosition=right;points=[];portConstraint=eastwest;strokeColor=inherit;rounded=0;" parent="T9mUNza6fIRcTFa7Orfm-102" vertex="1">
          <mxGeometry y="26" width="160" height="8" as="geometry" />
        </mxCell>
        <mxCell id="T9mUNza6fIRcTFa7Orfm-105" value="+ method(type): type" style="text;strokeColor=none;fillColor=none;align=left;verticalAlign=top;spacingLeft=4;spacingRight=4;overflow=hidden;rotatable=0;points=[[0,0.5],[1,0.5]];portConstraint=eastwest;rounded=0;" parent="T9mUNza6fIRcTFa7Orfm-102" vertex="1">
          <mxGeometry y="34" width="160" height="26" as="geometry" />
        </mxCell>
        <mxCell id="T9mUNza6fIRcTFa7Orfm-103" value="+ field: type" style="text;strokeColor=none;fillColor=none;align=left;verticalAlign=top;spacingLeft=4;spacingRight=4;overflow=hidden;rotatable=0;points=[[0,0.5],[1,0.5]];portConstraint=eastwest;rounded=0;" parent="T9mUNza6fIRcTFa7Orfm-102" vertex="1">
          <mxGeometry y="60" width="160" height="26" as="geometry" />
        </mxCell>
        <mxCell id="T9mUNza6fIRcTFa7Orfm-106" value="점수" style="swimlane;fontStyle=1;align=center;verticalAlign=top;childLayout=stackLayout;horizontal=1;startSize=26;horizontalStack=0;resizeParent=1;resizeParentMax=0;resizeLast=0;collapsible=1;marginBottom=0;rounded=0;" parent="1" vertex="1">
          <mxGeometry x="981" y="1652" width="160" height="86" as="geometry">
            <mxRectangle x="211" y="50" width="103" height="26" as="alternateBounds" />
          </mxGeometry>
        </mxCell>
        <mxCell id="T9mUNza6fIRcTFa7Orfm-107" value="+ field: type" style="text;strokeColor=none;fillColor=none;align=left;verticalAlign=top;spacingLeft=4;spacingRight=4;overflow=hidden;rotatable=0;points=[[0,0.5],[1,0.5]];portConstraint=eastwest;rounded=0;" parent="T9mUNza6fIRcTFa7Orfm-106" vertex="1">
          <mxGeometry y="26" width="160" height="26" as="geometry" />
        </mxCell>
        <mxCell id="T9mUNza6fIRcTFa7Orfm-108" value="" style="line;strokeWidth=1;fillColor=none;align=left;verticalAlign=middle;spacingTop=-1;spacingLeft=3;spacingRight=3;rotatable=0;labelPosition=right;points=[];portConstraint=eastwest;strokeColor=inherit;rounded=0;" parent="T9mUNza6fIRcTFa7Orfm-106" vertex="1">
          <mxGeometry y="52" width="160" height="8" as="geometry" />
        </mxCell>
        <mxCell id="T9mUNza6fIRcTFa7Orfm-109" value="+ method(type): type" style="text;strokeColor=none;fillColor=none;align=left;verticalAlign=top;spacingLeft=4;spacingRight=4;overflow=hidden;rotatable=0;points=[[0,0.5],[1,0.5]];portConstraint=eastwest;rounded=0;" parent="T9mUNza6fIRcTFa7Orfm-106" vertex="1">
          <mxGeometry y="60" width="160" height="26" as="geometry" />
        </mxCell>
        <mxCell id="T9mUNza6fIRcTFa7Orfm-110" value="공격 강화" style="swimlane;fontStyle=1;align=center;verticalAlign=top;childLayout=stackLayout;horizontal=1;startSize=26;horizontalStack=0;resizeParent=1;resizeParentMax=0;resizeLast=0;collapsible=1;marginBottom=0;rounded=0;" parent="1" vertex="1">
          <mxGeometry x="984" y="1752" width="160" height="86" as="geometry">
            <mxRectangle x="211" y="50" width="103" height="26" as="alternateBounds" />
          </mxGeometry>
        </mxCell>
        <mxCell id="T9mUNza6fIRcTFa7Orfm-111" value="+ field: type" style="text;strokeColor=none;fillColor=none;align=left;verticalAlign=top;spacingLeft=4;spacingRight=4;overflow=hidden;rotatable=0;points=[[0,0.5],[1,0.5]];portConstraint=eastwest;rounded=0;" parent="T9mUNza6fIRcTFa7Orfm-110" vertex="1">
          <mxGeometry y="26" width="160" height="26" as="geometry" />
        </mxCell>
        <mxCell id="T9mUNza6fIRcTFa7Orfm-112" value="" style="line;strokeWidth=1;fillColor=none;align=left;verticalAlign=middle;spacingTop=-1;spacingLeft=3;spacingRight=3;rotatable=0;labelPosition=right;points=[];portConstraint=eastwest;strokeColor=inherit;rounded=0;" parent="T9mUNza6fIRcTFa7Orfm-110" vertex="1">
          <mxGeometry y="52" width="160" height="8" as="geometry" />
        </mxCell>
        <mxCell id="T9mUNza6fIRcTFa7Orfm-113" value="+ method(type): type" style="text;strokeColor=none;fillColor=none;align=left;verticalAlign=top;spacingLeft=4;spacingRight=4;overflow=hidden;rotatable=0;points=[[0,0.5],[1,0.5]];portConstraint=eastwest;rounded=0;" parent="T9mUNza6fIRcTFa7Orfm-110" vertex="1">
          <mxGeometry y="60" width="160" height="26" as="geometry" />
        </mxCell>
        <mxCell id="T9mUNza6fIRcTFa7Orfm-114" value="pc 크기 변화" style="swimlane;fontStyle=1;align=center;verticalAlign=top;childLayout=stackLayout;horizontal=1;startSize=26;horizontalStack=0;resizeParent=1;resizeParentMax=0;resizeLast=0;collapsible=1;marginBottom=0;rounded=0;" parent="1" vertex="1">
          <mxGeometry x="62" y="1710" width="160" height="86" as="geometry">
            <mxRectangle x="211" y="50" width="103" height="26" as="alternateBounds" />
          </mxGeometry>
        </mxCell>
        <mxCell id="T9mUNza6fIRcTFa7Orfm-115" value="+ field: type" style="text;strokeColor=none;fillColor=none;align=left;verticalAlign=top;spacingLeft=4;spacingRight=4;overflow=hidden;rotatable=0;points=[[0,0.5],[1,0.5]];portConstraint=eastwest;rounded=0;" parent="T9mUNza6fIRcTFa7Orfm-114" vertex="1">
          <mxGeometry y="26" width="160" height="26" as="geometry" />
        </mxCell>
        <mxCell id="T9mUNza6fIRcTFa7Orfm-116" value="" style="line;strokeWidth=1;fillColor=none;align=left;verticalAlign=middle;spacingTop=-1;spacingLeft=3;spacingRight=3;rotatable=0;labelPosition=right;points=[];portConstraint=eastwest;strokeColor=inherit;rounded=0;" parent="T9mUNza6fIRcTFa7Orfm-114" vertex="1">
          <mxGeometry y="52" width="160" height="8" as="geometry" />
        </mxCell>
        <mxCell id="T9mUNza6fIRcTFa7Orfm-117" value="+ method(type): type" style="text;strokeColor=none;fillColor=none;align=left;verticalAlign=top;spacingLeft=4;spacingRight=4;overflow=hidden;rotatable=0;points=[[0,0.5],[1,0.5]];portConstraint=eastwest;rounded=0;" parent="T9mUNza6fIRcTFa7Orfm-114" vertex="1">
          <mxGeometry y="60" width="160" height="26" as="geometry" />
        </mxCell>
        <mxCell id="T9mUNza6fIRcTFa7Orfm-122" value="GameObject&lt;br style=&quot;font-size: 24px;&quot;&gt;지형(tile)" style="html=1;align=left;horizontal=1;verticalAlign=top;fontStyle=3;fontSize=24;movable=0;resizable=0;rotatable=0;deletable=0;editable=0;connectable=0;locked=1;" parent="1" vertex="1">
          <mxGeometry x="25" y="1968" width="1121" height="318" as="geometry" />
        </mxCell>
        <mxCell id="T9mUNza6fIRcTFa7Orfm-127" value="충돌처리" style="swimlane;fontStyle=1;align=center;verticalAlign=top;childLayout=stackLayout;horizontal=1;startSize=26;horizontalStack=0;resizeParent=1;resizeParentMax=0;resizeLast=0;collapsible=1;marginBottom=0;rounded=0;" parent="1" vertex="1">
          <mxGeometry x="802" y="2185" width="160" height="86" as="geometry">
            <mxRectangle x="60" y="50" width="103" height="26" as="alternateBounds" />
          </mxGeometry>
        </mxCell>
        <mxCell id="T9mUNza6fIRcTFa7Orfm-128" value="+ field: type" style="text;strokeColor=none;fillColor=none;align=left;verticalAlign=top;spacingLeft=4;spacingRight=4;overflow=hidden;rotatable=0;points=[[0,0.5],[1,0.5]];portConstraint=eastwest;rounded=0;" parent="T9mUNza6fIRcTFa7Orfm-127" vertex="1">
          <mxGeometry y="26" width="160" height="26" as="geometry" />
        </mxCell>
        <mxCell id="T9mUNza6fIRcTFa7Orfm-129" value="" style="line;strokeWidth=1;fillColor=none;align=left;verticalAlign=middle;spacingTop=-1;spacingLeft=3;spacingRight=3;rotatable=0;labelPosition=right;points=[];portConstraint=eastwest;strokeColor=inherit;rounded=0;" parent="T9mUNza6fIRcTFa7Orfm-127" vertex="1">
          <mxGeometry y="52" width="160" height="8" as="geometry" />
        </mxCell>
        <mxCell id="T9mUNza6fIRcTFa7Orfm-130" value="+ method(type): type" style="text;strokeColor=none;fillColor=none;align=left;verticalAlign=top;spacingLeft=4;spacingRight=4;overflow=hidden;rotatable=0;points=[[0,0.5],[1,0.5]];portConstraint=eastwest;rounded=0;" parent="T9mUNza6fIRcTFa7Orfm-127" vertex="1">
          <mxGeometry y="60" width="160" height="26" as="geometry" />
        </mxCell>
        <mxCell id="T9mUNza6fIRcTFa7Orfm-131" value="트리거" style="swimlane;fontStyle=1;align=center;verticalAlign=top;childLayout=stackLayout;horizontal=1;startSize=26;horizontalStack=0;resizeParent=1;resizeParentMax=0;resizeLast=0;collapsible=1;marginBottom=0;rounded=0;" parent="1" vertex="1">
          <mxGeometry x="281" y="1997" width="160" height="86" as="geometry">
            <mxRectangle x="60" y="50" width="103" height="26" as="alternateBounds" />
          </mxGeometry>
        </mxCell>
        <mxCell id="T9mUNza6fIRcTFa7Orfm-132" value="+ field: type" style="text;strokeColor=none;fillColor=none;align=left;verticalAlign=top;spacingLeft=4;spacingRight=4;overflow=hidden;rotatable=0;points=[[0,0.5],[1,0.5]];portConstraint=eastwest;rounded=0;" parent="T9mUNza6fIRcTFa7Orfm-131" vertex="1">
          <mxGeometry y="26" width="160" height="26" as="geometry" />
        </mxCell>
        <mxCell id="T9mUNza6fIRcTFa7Orfm-133" value="" style="line;strokeWidth=1;fillColor=none;align=left;verticalAlign=middle;spacingTop=-1;spacingLeft=3;spacingRight=3;rotatable=0;labelPosition=right;points=[];portConstraint=eastwest;strokeColor=inherit;rounded=0;" parent="T9mUNza6fIRcTFa7Orfm-131" vertex="1">
          <mxGeometry y="52" width="160" height="8" as="geometry" />
        </mxCell>
        <mxCell id="T9mUNza6fIRcTFa7Orfm-134" value="+ method(type): type" style="text;strokeColor=none;fillColor=none;align=left;verticalAlign=top;spacingLeft=4;spacingRight=4;overflow=hidden;rotatable=0;points=[[0,0.5],[1,0.5]];portConstraint=eastwest;rounded=0;" parent="T9mUNza6fIRcTFa7Orfm-131" vertex="1">
          <mxGeometry y="60" width="160" height="26" as="geometry" />
        </mxCell>
        <mxCell id="T9mUNza6fIRcTFa7Orfm-135" value="이동(추후)" style="swimlane;fontStyle=1;align=center;verticalAlign=top;childLayout=stackLayout;horizontal=1;startSize=26;horizontalStack=0;resizeParent=1;resizeParentMax=0;resizeLast=0;collapsible=1;marginBottom=0;rounded=0;" parent="1" vertex="1">
          <mxGeometry x="452" y="1995" width="160" height="86" as="geometry">
            <mxRectangle x="60" y="50" width="103" height="26" as="alternateBounds" />
          </mxGeometry>
        </mxCell>
        <mxCell id="T9mUNza6fIRcTFa7Orfm-136" value="+ field: type" style="text;strokeColor=none;fillColor=none;align=left;verticalAlign=top;spacingLeft=4;spacingRight=4;overflow=hidden;rotatable=0;points=[[0,0.5],[1,0.5]];portConstraint=eastwest;rounded=0;" parent="T9mUNza6fIRcTFa7Orfm-135" vertex="1">
          <mxGeometry y="26" width="160" height="26" as="geometry" />
        </mxCell>
        <mxCell id="T9mUNza6fIRcTFa7Orfm-137" value="" style="line;strokeWidth=1;fillColor=none;align=left;verticalAlign=middle;spacingTop=-1;spacingLeft=3;spacingRight=3;rotatable=0;labelPosition=right;points=[];portConstraint=eastwest;strokeColor=inherit;rounded=0;" parent="T9mUNza6fIRcTFa7Orfm-135" vertex="1">
          <mxGeometry y="52" width="160" height="8" as="geometry" />
        </mxCell>
        <mxCell id="T9mUNza6fIRcTFa7Orfm-138" value="+ method(type): type" style="text;strokeColor=none;fillColor=none;align=left;verticalAlign=top;spacingLeft=4;spacingRight=4;overflow=hidden;rotatable=0;points=[[0,0.5],[1,0.5]];portConstraint=eastwest;rounded=0;" parent="T9mUNza6fIRcTFa7Orfm-135" vertex="1">
          <mxGeometry y="60" width="160" height="26" as="geometry" />
        </mxCell>
        <mxCell id="T9mUNza6fIRcTFa7Orfm-139" value="함정(TrapBase)" style="swimlane;fontStyle=1;align=center;verticalAlign=top;childLayout=stackLayout;horizontal=1;startSize=26;horizontalStack=0;resizeParent=1;resizeParentMax=0;resizeLast=0;collapsible=1;marginBottom=0;rounded=0;fillColor=#ffe6cc;strokeColor=#d79b00;" parent="1" vertex="1">
          <mxGeometry x="629" y="1984" width="160" height="106" as="geometry">
            <mxRectangle x="60" y="50" width="103" height="26" as="alternateBounds" />
          </mxGeometry>
        </mxCell>
        <mxCell id="T9mUNza6fIRcTFa7Orfm-140" value="+ damage : private float&#xa;+ Damage : protected float" style="text;strokeColor=none;fillColor=none;align=left;verticalAlign=top;spacingLeft=4;spacingRight=4;overflow=hidden;rotatable=0;points=[[0,0.5],[1,0.5]];portConstraint=eastwest;rounded=0;" parent="T9mUNza6fIRcTFa7Orfm-139" vertex="1">
          <mxGeometry y="26" width="160" height="46" as="geometry" />
        </mxCell>
        <mxCell id="T9mUNza6fIRcTFa7Orfm-141" value="" style="line;strokeWidth=1;fillColor=none;align=left;verticalAlign=middle;spacingTop=-1;spacingLeft=3;spacingRight=3;rotatable=0;labelPosition=right;points=[];portConstraint=eastwest;strokeColor=inherit;rounded=0;" parent="T9mUNza6fIRcTFa7Orfm-139" vertex="1">
          <mxGeometry y="72" width="160" height="8" as="geometry" />
        </mxCell>
        <mxCell id="T9mUNza6fIRcTFa7Orfm-142" value="+ method(type): type" style="text;strokeColor=none;fillColor=none;align=left;verticalAlign=top;spacingLeft=4;spacingRight=4;overflow=hidden;rotatable=0;points=[[0,0.5],[1,0.5]];portConstraint=eastwest;rounded=0;" parent="T9mUNza6fIRcTFa7Orfm-139" vertex="1">
          <mxGeometry y="80" width="160" height="26" as="geometry" />
        </mxCell>
        <mxCell id="T9mUNza6fIRcTFa7Orfm-143" value="에니메이터 처리" style="swimlane;fontStyle=1;align=center;verticalAlign=top;childLayout=stackLayout;horizontal=1;startSize=26;horizontalStack=0;resizeParent=1;resizeParentMax=0;resizeLast=0;collapsible=1;marginBottom=0;rounded=0;" parent="1" vertex="1">
          <mxGeometry x="452" y="2089" width="160" height="86" as="geometry">
            <mxRectangle x="60" y="50" width="103" height="26" as="alternateBounds" />
          </mxGeometry>
        </mxCell>
        <mxCell id="T9mUNza6fIRcTFa7Orfm-144" value="+ field: type" style="text;strokeColor=none;fillColor=none;align=left;verticalAlign=top;spacingLeft=4;spacingRight=4;overflow=hidden;rotatable=0;points=[[0,0.5],[1,0.5]];portConstraint=eastwest;rounded=0;" parent="T9mUNza6fIRcTFa7Orfm-143" vertex="1">
          <mxGeometry y="26" width="160" height="26" as="geometry" />
        </mxCell>
        <mxCell id="T9mUNza6fIRcTFa7Orfm-145" value="" style="line;strokeWidth=1;fillColor=none;align=left;verticalAlign=middle;spacingTop=-1;spacingLeft=3;spacingRight=3;rotatable=0;labelPosition=right;points=[];portConstraint=eastwest;strokeColor=inherit;rounded=0;" parent="T9mUNza6fIRcTFa7Orfm-143" vertex="1">
          <mxGeometry y="52" width="160" height="8" as="geometry" />
        </mxCell>
        <mxCell id="T9mUNza6fIRcTFa7Orfm-146" value="+ method(type): type" style="text;strokeColor=none;fillColor=none;align=left;verticalAlign=top;spacingLeft=4;spacingRight=4;overflow=hidden;rotatable=0;points=[[0,0.5],[1,0.5]];portConstraint=eastwest;rounded=0;" parent="T9mUNza6fIRcTFa7Orfm-143" vertex="1">
          <mxGeometry y="60" width="160" height="26" as="geometry" />
        </mxCell>
        <mxCell id="T9mUNza6fIRcTFa7Orfm-147" value="킬존(RunningStage종료판단)" style="swimlane;fontStyle=1;align=center;verticalAlign=top;childLayout=stackLayout;horizontal=1;startSize=26;horizontalStack=0;resizeParent=1;resizeParentMax=0;resizeLast=0;collapsible=1;marginBottom=0;rounded=0;fillColor=#ffe6cc;strokeColor=#d79b00;" parent="1" vertex="1">
          <mxGeometry x="278" y="2103" width="160" height="147" as="geometry">
            <mxRectangle x="60" y="50" width="103" height="26" as="alternateBounds" />
          </mxGeometry>
        </mxCell>
        <mxCell id="T9mUNza6fIRcTFa7Orfm-148" value="+ platformCountEnd : public int&#xa;+ platformCount : private int&#xa;+ PlatformCount : public int&#xa;+ onPlatformChanged : public Action&lt;int&gt;&#xa;+ onStageEnd : public Action" style="text;strokeColor=none;fillColor=none;align=left;verticalAlign=top;spacingLeft=4;spacingRight=4;overflow=hidden;rotatable=0;points=[[0,0.5],[1,0.5]];portConstraint=eastwest;rounded=0;" parent="T9mUNza6fIRcTFa7Orfm-147" vertex="1">
          <mxGeometry y="26" width="160" height="78" as="geometry" />
        </mxCell>
        <mxCell id="T9mUNza6fIRcTFa7Orfm-149" value="" style="line;strokeWidth=1;fillColor=none;align=left;verticalAlign=middle;spacingTop=-1;spacingLeft=3;spacingRight=3;rotatable=0;labelPosition=right;points=[];portConstraint=eastwest;strokeColor=inherit;rounded=0;" parent="T9mUNza6fIRcTFa7Orfm-147" vertex="1">
          <mxGeometry y="104" width="160" height="8" as="geometry" />
        </mxCell>
        <mxCell id="T9mUNza6fIRcTFa7Orfm-150" value="+ onStageEnd() : public void" style="text;strokeColor=none;fillColor=none;align=left;verticalAlign=top;spacingLeft=4;spacingRight=4;overflow=hidden;rotatable=0;points=[[0,0.5],[1,0.5]];portConstraint=eastwest;rounded=0;" parent="T9mUNza6fIRcTFa7Orfm-147" vertex="1">
          <mxGeometry y="112" width="160" height="35" as="geometry" />
        </mxCell>
        <mxCell id="T9mUNza6fIRcTFa7Orfm-151" value="GameObject&lt;br&gt;스테이지(scene)" style="html=1;align=left;horizontal=1;verticalAlign=top;fontStyle=3;fontSize=24;movable=0;resizable=0;rotatable=0;deletable=0;editable=0;connectable=0;locked=1;" parent="1" vertex="1">
          <mxGeometry x="26" y="2298" width="1121" height="266" as="geometry" />
        </mxCell>
        <mxCell id="T9mUNza6fIRcTFa7Orfm-152" value="킬존" style="swimlane;fontStyle=1;align=center;verticalAlign=top;childLayout=stackLayout;horizontal=1;startSize=26;horizontalStack=0;resizeParent=1;resizeParentMax=0;resizeLast=0;collapsible=1;marginBottom=0;rounded=0;" parent="1" vertex="1">
          <mxGeometry x="75" y="2397" width="160" height="126" as="geometry">
            <mxRectangle x="60" y="50" width="103" height="26" as="alternateBounds" />
          </mxGeometry>
        </mxCell>
        <mxCell id="oKwF6M0V3REEbmT1rOgS-1" value="" style="verticalLabelPosition=bottom;verticalAlign=top;html=1;shape=mxgraph.basic.x" parent="T9mUNza6fIRcTFa7Orfm-152" vertex="1">
          <mxGeometry y="26" width="160" height="100" as="geometry" />
        </mxCell>
        <mxCell id="6oGHIOJsxx8lZvOddpZp-47" style="edgeStyle=orthogonalEdgeStyle;rounded=0;orthogonalLoop=1;jettySize=auto;html=1;exitX=0.5;exitY=0;exitDx=0;exitDy=0;" edge="1" parent="1" source="T9mUNza6fIRcTFa7Orfm-156" target="oKwF6M0V3REEbmT1rOgS-12">
          <mxGeometry relative="1" as="geometry">
            <mxPoint x="872" y="2263" as="targetPoint" />
            <Array as="points">
              <mxPoint x="337" y="2279" />
              <mxPoint x="882" y="2279" />
            </Array>
          </mxGeometry>
        </mxCell>
        <mxCell id="T9mUNza6fIRcTFa7Orfm-156" value="생성 ,초기화 삭제" style="swimlane;fontStyle=1;align=center;verticalAlign=top;childLayout=stackLayout;horizontal=1;startSize=26;horizontalStack=0;resizeParent=1;resizeParentMax=0;resizeLast=0;collapsible=1;marginBottom=0;rounded=0;" parent="1" vertex="1">
          <mxGeometry x="257" y="2323" width="160" height="86" as="geometry">
            <mxRectangle x="60" y="50" width="103" height="26" as="alternateBounds" />
          </mxGeometry>
        </mxCell>
        <mxCell id="T9mUNza6fIRcTFa7Orfm-157" value="+ field: type" style="text;strokeColor=none;fillColor=none;align=left;verticalAlign=top;spacingLeft=4;spacingRight=4;overflow=hidden;rotatable=0;points=[[0,0.5],[1,0.5]];portConstraint=eastwest;rounded=0;" parent="T9mUNza6fIRcTFa7Orfm-156" vertex="1">
          <mxGeometry y="26" width="160" height="26" as="geometry" />
        </mxCell>
        <mxCell id="T9mUNza6fIRcTFa7Orfm-158" value="" style="line;strokeWidth=1;fillColor=none;align=left;verticalAlign=middle;spacingTop=-1;spacingLeft=3;spacingRight=3;rotatable=0;labelPosition=right;points=[];portConstraint=eastwest;strokeColor=inherit;rounded=0;" parent="T9mUNza6fIRcTFa7Orfm-156" vertex="1">
          <mxGeometry y="52" width="160" height="8" as="geometry" />
        </mxCell>
        <mxCell id="T9mUNza6fIRcTFa7Orfm-159" value="+ method(type): type" style="text;strokeColor=none;fillColor=none;align=left;verticalAlign=top;spacingLeft=4;spacingRight=4;overflow=hidden;rotatable=0;points=[[0,0.5],[1,0.5]];portConstraint=eastwest;rounded=0;" parent="T9mUNza6fIRcTFa7Orfm-156" vertex="1">
          <mxGeometry y="60" width="160" height="26" as="geometry" />
        </mxCell>
        <mxCell id="T9mUNza6fIRcTFa7Orfm-160" value="씬  강제 스크롤" style="swimlane;fontStyle=1;align=center;verticalAlign=top;childLayout=stackLayout;horizontal=1;startSize=26;horizontalStack=0;resizeParent=1;resizeParentMax=0;resizeLast=0;collapsible=1;marginBottom=0;rounded=0;" parent="1" vertex="1">
          <mxGeometry x="255" y="2447" width="160" height="86" as="geometry">
            <mxRectangle x="60" y="50" width="103" height="26" as="alternateBounds" />
          </mxGeometry>
        </mxCell>
        <mxCell id="T9mUNza6fIRcTFa7Orfm-161" value="+ field: type" style="text;strokeColor=none;fillColor=none;align=left;verticalAlign=top;spacingLeft=4;spacingRight=4;overflow=hidden;rotatable=0;points=[[0,0.5],[1,0.5]];portConstraint=eastwest;rounded=0;" parent="T9mUNza6fIRcTFa7Orfm-160" vertex="1">
          <mxGeometry y="26" width="160" height="26" as="geometry" />
        </mxCell>
        <mxCell id="T9mUNza6fIRcTFa7Orfm-162" value="" style="line;strokeWidth=1;fillColor=none;align=left;verticalAlign=middle;spacingTop=-1;spacingLeft=3;spacingRight=3;rotatable=0;labelPosition=right;points=[];portConstraint=eastwest;strokeColor=inherit;rounded=0;" parent="T9mUNza6fIRcTFa7Orfm-160" vertex="1">
          <mxGeometry y="52" width="160" height="8" as="geometry" />
        </mxCell>
        <mxCell id="T9mUNza6fIRcTFa7Orfm-163" value="+ method(type): type" style="text;strokeColor=none;fillColor=none;align=left;verticalAlign=top;spacingLeft=4;spacingRight=4;overflow=hidden;rotatable=0;points=[[0,0.5],[1,0.5]];portConstraint=eastwest;rounded=0;" parent="T9mUNza6fIRcTFa7Orfm-160" vertex="1">
          <mxGeometry y="60" width="160" height="26" as="geometry" />
        </mxCell>
        <mxCell id="T9mUNza6fIRcTFa7Orfm-168" value="랜덤 타일 조합&#xa;RandomLandPool" style="swimlane;fontStyle=1;align=center;verticalAlign=top;childLayout=stackLayout;horizontal=1;startSize=26;horizontalStack=0;resizeParent=1;resizeParentMax=0;resizeLast=0;collapsible=1;marginBottom=0;rounded=0;fillColor=#ffe6cc;strokeColor=#d79b00;" parent="1" vertex="1">
          <mxGeometry x="440" y="2465" width="160" height="77" as="geometry">
            <mxRectangle x="60" y="50" width="103" height="26" as="alternateBounds" />
          </mxGeometry>
        </mxCell>
        <mxCell id="T9mUNza6fIRcTFa7Orfm-169" value="+ Rate : private float" style="text;strokeColor=none;fillColor=none;align=left;verticalAlign=top;spacingLeft=4;spacingRight=4;overflow=hidden;rotatable=0;points=[[0,0.5],[1,0.5]];portConstraint=eastwest;rounded=0;" parent="T9mUNza6fIRcTFa7Orfm-168" vertex="1">
          <mxGeometry y="26" width="160" height="17" as="geometry" />
        </mxCell>
        <mxCell id="T9mUNza6fIRcTFa7Orfm-170" value="" style="line;strokeWidth=1;fillColor=none;align=left;verticalAlign=middle;spacingTop=-1;spacingLeft=3;spacingRight=3;rotatable=0;labelPosition=right;points=[];portConstraint=eastwest;strokeColor=inherit;rounded=0;" parent="T9mUNza6fIRcTFa7Orfm-168" vertex="1">
          <mxGeometry y="43" width="160" height="8" as="geometry" />
        </mxCell>
        <mxCell id="T9mUNza6fIRcTFa7Orfm-171" value="+ LandPicker() : public static LandType" style="text;strokeColor=none;fillColor=none;align=left;verticalAlign=top;spacingLeft=4;spacingRight=4;overflow=hidden;rotatable=0;points=[[0,0.5],[1,0.5]];portConstraint=eastwest;rounded=0;" parent="T9mUNza6fIRcTFa7Orfm-168" vertex="1">
          <mxGeometry y="51" width="160" height="26" as="geometry" />
        </mxCell>
        <mxCell id="T9mUNza6fIRcTFa7Orfm-172" value="열광 이펙트" style="swimlane;fontStyle=1;align=center;verticalAlign=top;childLayout=stackLayout;horizontal=1;startSize=26;horizontalStack=0;resizeParent=1;resizeParentMax=0;resizeLast=0;collapsible=1;marginBottom=0;rounded=0;" parent="1" vertex="1">
          <mxGeometry x="806" y="2336" width="160" height="86" as="geometry">
            <mxRectangle x="60" y="50" width="103" height="26" as="alternateBounds" />
          </mxGeometry>
        </mxCell>
        <mxCell id="T9mUNza6fIRcTFa7Orfm-173" value="+ field: type" style="text;strokeColor=none;fillColor=none;align=left;verticalAlign=top;spacingLeft=4;spacingRight=4;overflow=hidden;rotatable=0;points=[[0,0.5],[1,0.5]];portConstraint=eastwest;rounded=0;" parent="T9mUNza6fIRcTFa7Orfm-172" vertex="1">
          <mxGeometry y="26" width="160" height="26" as="geometry" />
        </mxCell>
        <mxCell id="T9mUNza6fIRcTFa7Orfm-174" value="" style="line;strokeWidth=1;fillColor=none;align=left;verticalAlign=middle;spacingTop=-1;spacingLeft=3;spacingRight=3;rotatable=0;labelPosition=right;points=[];portConstraint=eastwest;strokeColor=inherit;rounded=0;" parent="T9mUNza6fIRcTFa7Orfm-172" vertex="1">
          <mxGeometry y="52" width="160" height="8" as="geometry" />
        </mxCell>
        <mxCell id="T9mUNza6fIRcTFa7Orfm-175" value="+ method(type): type" style="text;strokeColor=none;fillColor=none;align=left;verticalAlign=top;spacingLeft=4;spacingRight=4;overflow=hidden;rotatable=0;points=[[0,0.5],[1,0.5]];portConstraint=eastwest;rounded=0;" parent="T9mUNza6fIRcTFa7Orfm-172" vertex="1">
          <mxGeometry y="60" width="160" height="26" as="geometry" />
        </mxCell>
        <mxCell id="T9mUNza6fIRcTFa7Orfm-176" value="도착지점(점수계산)" style="swimlane;fontStyle=1;align=center;verticalAlign=top;childLayout=stackLayout;horizontal=1;startSize=26;horizontalStack=0;resizeParent=1;resizeParentMax=0;resizeLast=0;collapsible=1;marginBottom=0;rounded=0;" parent="1" vertex="1">
          <mxGeometry x="809" y="2447" width="160" height="86" as="geometry">
            <mxRectangle x="60" y="50" width="103" height="26" as="alternateBounds" />
          </mxGeometry>
        </mxCell>
        <mxCell id="T9mUNza6fIRcTFa7Orfm-177" value="+ field: type" style="text;strokeColor=none;fillColor=none;align=left;verticalAlign=top;spacingLeft=4;spacingRight=4;overflow=hidden;rotatable=0;points=[[0,0.5],[1,0.5]];portConstraint=eastwest;rounded=0;" parent="T9mUNza6fIRcTFa7Orfm-176" vertex="1">
          <mxGeometry y="26" width="160" height="26" as="geometry" />
        </mxCell>
        <mxCell id="T9mUNza6fIRcTFa7Orfm-178" value="" style="line;strokeWidth=1;fillColor=none;align=left;verticalAlign=middle;spacingTop=-1;spacingLeft=3;spacingRight=3;rotatable=0;labelPosition=right;points=[];portConstraint=eastwest;strokeColor=inherit;rounded=0;" parent="T9mUNza6fIRcTFa7Orfm-176" vertex="1">
          <mxGeometry y="52" width="160" height="8" as="geometry" />
        </mxCell>
        <mxCell id="T9mUNza6fIRcTFa7Orfm-179" value="+ method(type): type" style="text;strokeColor=none;fillColor=none;align=left;verticalAlign=top;spacingLeft=4;spacingRight=4;overflow=hidden;rotatable=0;points=[[0,0.5],[1,0.5]];portConstraint=eastwest;rounded=0;" parent="T9mUNza6fIRcTFa7Orfm-176" vertex="1">
          <mxGeometry y="60" width="160" height="26" as="geometry" />
        </mxCell>
        <mxCell id="T9mUNza6fIRcTFa7Orfm-184" value="순위표(메뉴 및 죽을떄)" style="swimlane;fontStyle=1;align=center;verticalAlign=top;childLayout=stackLayout;horizontal=1;startSize=26;horizontalStack=0;resizeParent=1;resizeParentMax=0;resizeLast=0;collapsible=1;marginBottom=0;rounded=0;" parent="1" vertex="1">
          <mxGeometry x="895" y="1400.5" width="160" height="86" as="geometry">
            <mxRectangle x="211" y="50" width="103" height="26" as="alternateBounds" />
          </mxGeometry>
        </mxCell>
        <mxCell id="T9mUNza6fIRcTFa7Orfm-185" value="+ field: type" style="text;strokeColor=none;fillColor=none;align=left;verticalAlign=top;spacingLeft=4;spacingRight=4;overflow=hidden;rotatable=0;points=[[0,0.5],[1,0.5]];portConstraint=eastwest;rounded=0;" parent="T9mUNza6fIRcTFa7Orfm-184" vertex="1">
          <mxGeometry y="26" width="160" height="26" as="geometry" />
        </mxCell>
        <mxCell id="T9mUNza6fIRcTFa7Orfm-186" value="" style="line;strokeWidth=1;fillColor=none;align=left;verticalAlign=middle;spacingTop=-1;spacingLeft=3;spacingRight=3;rotatable=0;labelPosition=right;points=[];portConstraint=eastwest;strokeColor=inherit;rounded=0;" parent="T9mUNza6fIRcTFa7Orfm-184" vertex="1">
          <mxGeometry y="52" width="160" height="8" as="geometry" />
        </mxCell>
        <mxCell id="T9mUNza6fIRcTFa7Orfm-187" value="+ method(type): type" style="text;strokeColor=none;fillColor=none;align=left;verticalAlign=top;spacingLeft=4;spacingRight=4;overflow=hidden;rotatable=0;points=[[0,0.5],[1,0.5]];portConstraint=eastwest;rounded=0;" parent="T9mUNza6fIRcTFa7Orfm-184" vertex="1">
          <mxGeometry y="60" width="160" height="26" as="geometry" />
        </mxCell>
        <mxCell id="T9mUNza6fIRcTFa7Orfm-188" value="핸드폰 입력 가상 조이스틱?" style="swimlane;fontStyle=1;align=center;verticalAlign=top;childLayout=stackLayout;horizontal=1;startSize=26;horizontalStack=0;resizeParent=1;resizeParentMax=0;resizeLast=0;collapsible=1;marginBottom=0;rounded=0;" parent="1" vertex="1">
          <mxGeometry x="155" y="1499" width="160" height="86" as="geometry">
            <mxRectangle x="211" y="50" width="103" height="26" as="alternateBounds" />
          </mxGeometry>
        </mxCell>
        <mxCell id="T9mUNza6fIRcTFa7Orfm-189" value="+ field: type" style="text;strokeColor=none;fillColor=none;align=left;verticalAlign=top;spacingLeft=4;spacingRight=4;overflow=hidden;rotatable=0;points=[[0,0.5],[1,0.5]];portConstraint=eastwest;rounded=0;" parent="T9mUNza6fIRcTFa7Orfm-188" vertex="1">
          <mxGeometry y="26" width="160" height="26" as="geometry" />
        </mxCell>
        <mxCell id="T9mUNza6fIRcTFa7Orfm-190" value="" style="line;strokeWidth=1;fillColor=none;align=left;verticalAlign=middle;spacingTop=-1;spacingLeft=3;spacingRight=3;rotatable=0;labelPosition=right;points=[];portConstraint=eastwest;strokeColor=inherit;rounded=0;" parent="T9mUNza6fIRcTFa7Orfm-188" vertex="1">
          <mxGeometry y="52" width="160" height="8" as="geometry" />
        </mxCell>
        <mxCell id="T9mUNza6fIRcTFa7Orfm-191" value="+ method(type): type" style="text;strokeColor=none;fillColor=none;align=left;verticalAlign=top;spacingLeft=4;spacingRight=4;overflow=hidden;rotatable=0;points=[[0,0.5],[1,0.5]];portConstraint=eastwest;rounded=0;" parent="T9mUNza6fIRcTFa7Orfm-188" vertex="1">
          <mxGeometry y="60" width="160" height="26" as="geometry" />
        </mxCell>
        <mxCell id="T9mUNza6fIRcTFa7Orfm-192" value="일시정지" style="swimlane;fontStyle=1;align=center;verticalAlign=top;childLayout=stackLayout;horizontal=1;startSize=26;horizontalStack=0;resizeParent=1;resizeParentMax=0;resizeLast=0;collapsible=1;marginBottom=0;rounded=0;" parent="1" vertex="1">
          <mxGeometry x="351" y="1494" width="160" height="86" as="geometry">
            <mxRectangle x="211" y="50" width="103" height="26" as="alternateBounds" />
          </mxGeometry>
        </mxCell>
        <mxCell id="T9mUNza6fIRcTFa7Orfm-193" value="+ field: type" style="text;strokeColor=none;fillColor=none;align=left;verticalAlign=top;spacingLeft=4;spacingRight=4;overflow=hidden;rotatable=0;points=[[0,0.5],[1,0.5]];portConstraint=eastwest;rounded=0;" parent="T9mUNza6fIRcTFa7Orfm-192" vertex="1">
          <mxGeometry y="26" width="160" height="26" as="geometry" />
        </mxCell>
        <mxCell id="T9mUNza6fIRcTFa7Orfm-194" value="" style="line;strokeWidth=1;fillColor=none;align=left;verticalAlign=middle;spacingTop=-1;spacingLeft=3;spacingRight=3;rotatable=0;labelPosition=right;points=[];portConstraint=eastwest;strokeColor=inherit;rounded=0;" parent="T9mUNza6fIRcTFa7Orfm-192" vertex="1">
          <mxGeometry y="52" width="160" height="8" as="geometry" />
        </mxCell>
        <mxCell id="T9mUNza6fIRcTFa7Orfm-195" value="+ method(type): type" style="text;strokeColor=none;fillColor=none;align=left;verticalAlign=top;spacingLeft=4;spacingRight=4;overflow=hidden;rotatable=0;points=[[0,0.5],[1,0.5]];portConstraint=eastwest;rounded=0;" parent="T9mUNza6fIRcTFa7Orfm-192" vertex="1">
          <mxGeometry y="60" width="160" height="26" as="geometry" />
        </mxCell>
        <mxCell id="T9mUNza6fIRcTFa7Orfm-196" value="Ai" style="swimlane;fontStyle=1;align=center;verticalAlign=top;childLayout=stackLayout;horizontal=1;startSize=26;horizontalStack=0;resizeParent=1;resizeParentMax=0;resizeLast=0;collapsible=1;marginBottom=0;rounded=0;" parent="1" vertex="1">
          <mxGeometry x="83" y="1039" width="160" height="86" as="geometry">
            <mxRectangle x="211" y="50" width="103" height="26" as="alternateBounds" />
          </mxGeometry>
        </mxCell>
        <mxCell id="T9mUNza6fIRcTFa7Orfm-197" value="+ field: type" style="text;strokeColor=none;fillColor=none;align=left;verticalAlign=top;spacingLeft=4;spacingRight=4;overflow=hidden;rotatable=0;points=[[0,0.5],[1,0.5]];portConstraint=eastwest;rounded=0;" parent="T9mUNza6fIRcTFa7Orfm-196" vertex="1">
          <mxGeometry y="26" width="160" height="26" as="geometry" />
        </mxCell>
        <mxCell id="T9mUNza6fIRcTFa7Orfm-198" value="" style="line;strokeWidth=1;fillColor=none;align=left;verticalAlign=middle;spacingTop=-1;spacingLeft=3;spacingRight=3;rotatable=0;labelPosition=right;points=[];portConstraint=eastwest;strokeColor=inherit;rounded=0;" parent="T9mUNza6fIRcTFa7Orfm-196" vertex="1">
          <mxGeometry y="52" width="160" height="8" as="geometry" />
        </mxCell>
        <mxCell id="T9mUNza6fIRcTFa7Orfm-199" value="+ method(type): type" style="text;strokeColor=none;fillColor=none;align=left;verticalAlign=top;spacingLeft=4;spacingRight=4;overflow=hidden;rotatable=0;points=[[0,0.5],[1,0.5]];portConstraint=eastwest;rounded=0;" parent="T9mUNza6fIRcTFa7Orfm-196" vertex="1">
          <mxGeometry y="60" width="160" height="26" as="geometry" />
        </mxCell>
        <mxCell id="T9mUNza6fIRcTFa7Orfm-204" value="스킬2" style="swimlane;fontStyle=1;align=center;verticalAlign=top;childLayout=stackLayout;horizontal=1;startSize=26;horizontalStack=0;resizeParent=1;resizeParentMax=0;resizeLast=0;collapsible=1;marginBottom=0;rounded=0;" parent="1" vertex="1">
          <mxGeometry x="604" y="281" width="160" height="86" as="geometry">
            <mxRectangle x="211" y="50" width="103" height="26" as="alternateBounds" />
          </mxGeometry>
        </mxCell>
        <mxCell id="T9mUNza6fIRcTFa7Orfm-205" value="+ field: type" style="text;strokeColor=none;fillColor=none;align=left;verticalAlign=top;spacingLeft=4;spacingRight=4;overflow=hidden;rotatable=0;points=[[0,0.5],[1,0.5]];portConstraint=eastwest;rounded=0;" parent="T9mUNza6fIRcTFa7Orfm-204" vertex="1">
          <mxGeometry y="26" width="160" height="26" as="geometry" />
        </mxCell>
        <mxCell id="T9mUNza6fIRcTFa7Orfm-206" value="" style="line;strokeWidth=1;fillColor=none;align=left;verticalAlign=middle;spacingTop=-1;spacingLeft=3;spacingRight=3;rotatable=0;labelPosition=right;points=[];portConstraint=eastwest;strokeColor=inherit;rounded=0;" parent="T9mUNza6fIRcTFa7Orfm-204" vertex="1">
          <mxGeometry y="52" width="160" height="8" as="geometry" />
        </mxCell>
        <mxCell id="T9mUNza6fIRcTFa7Orfm-207" value="+ method(type): type" style="text;strokeColor=none;fillColor=none;align=left;verticalAlign=top;spacingLeft=4;spacingRight=4;overflow=hidden;rotatable=0;points=[[0,0.5],[1,0.5]];portConstraint=eastwest;rounded=0;" parent="T9mUNza6fIRcTFa7Orfm-204" vertex="1">
          <mxGeometry y="60" width="160" height="26" as="geometry" />
        </mxCell>
        <mxCell id="8GwpO3qmxpktZa14Auqh-6" value="dispatch" style="html=1;verticalAlign=bottom;endArrow=block;edgeStyle=elbowEdgeStyle;elbow=vertical;curved=0;rounded=0;exitX=1;exitY=0.5;exitDx=0;exitDy=0;entryX=1.019;entryY=0.337;entryDx=0;entryDy=0;entryPerimeter=0;" parent="1" source="8GwpO3qmxpktZa14Auqh-5" target="2KdH2W9au-dCU_cuiKQ8-54" edge="1">
          <mxGeometry width="80" relative="1" as="geometry">
            <mxPoint x="439" y="491" as="sourcePoint" />
            <mxPoint x="519" y="491" as="targetPoint" />
            <Array as="points">
              <mxPoint x="398" y="446" />
              <mxPoint x="403" y="335" />
            </Array>
          </mxGeometry>
        </mxCell>
        <mxCell id="oKwF6M0V3REEbmT1rOgS-3" value="Spawner(GameObject)" style="swimlane;fontStyle=1;align=center;verticalAlign=top;childLayout=stackLayout;horizontal=1;startSize=26;horizontalStack=0;resizeParent=1;resizeParentMax=0;resizeLast=0;collapsible=1;marginBottom=0;rounded=0;fillColor=#e1d5e7;strokeColor=#9673a6;" parent="1" vertex="1">
          <mxGeometry x="452" y="1644" width="160" height="160" as="geometry">
            <mxRectangle x="211" y="50" width="103" height="26" as="alternateBounds" />
          </mxGeometry>
        </mxCell>
        <mxCell id="oKwF6M0V3REEbmT1rOgS-7" value="+ objType : public PoolObjectType &#xa;+ interval : public float&#xa;+ minY : public float&#xa;+ maxY : public float&#xa;" style="text;strokeColor=none;fillColor=none;align=left;verticalAlign=top;spacingLeft=4;spacingRight=4;overflow=hidden;rotatable=0;points=[[0,0.5],[1,0.5]];portConstraint=eastwest;rounded=0;" parent="oKwF6M0V3REEbmT1rOgS-3" vertex="1">
          <mxGeometry y="26" width="160" height="54" as="geometry" />
        </mxCell>
        <mxCell id="oKwF6M0V3REEbmT1rOgS-5" value="" style="line;strokeWidth=1;fillColor=none;align=center;verticalAlign=middle;spacingTop=-1;spacingLeft=3;spacingRight=3;rotatable=0;labelPosition=right;points=[];portConstraint=eastwest;strokeColor=inherit;rounded=0;" parent="oKwF6M0V3REEbmT1rOgS-3" vertex="1">
          <mxGeometry y="80" width="160" height="35" as="geometry" />
        </mxCell>
        <mxCell id="oKwF6M0V3REEbmT1rOgS-6" value="+ Spawn() : protected virtual IEnumerator&#xa;+ onSpawn(GameObject obj) : protected virtual void " style="text;strokeColor=none;fillColor=none;align=left;verticalAlign=top;spacingLeft=4;spacingRight=4;overflow=hidden;rotatable=0;points=[[0,0.5],[1,0.5]];portConstraint=eastwest;rounded=0;" parent="oKwF6M0V3REEbmT1rOgS-3" vertex="1">
          <mxGeometry y="115" width="160" height="45" as="geometry" />
        </mxCell>
        <mxCell id="oKwF6M0V3REEbmT1rOgS-8" value="Factory(GameObject)" style="swimlane;fontStyle=1;align=center;verticalAlign=top;childLayout=stackLayout;horizontal=1;startSize=26;horizontalStack=0;resizeParent=1;resizeParentMax=0;resizeLast=0;collapsible=1;marginBottom=0;rounded=0;fillColor=#e1d5e7;strokeColor=#9673a6;" parent="1" vertex="1">
          <mxGeometry x="622" y="1644" width="160" height="304" as="geometry">
            <mxRectangle x="211" y="50" width="103" height="26" as="alternateBounds" />
          </mxGeometry>
        </mxCell>
        <mxCell id="oKwF6M0V3REEbmT1rOgS-9" value="+ PoolObjectType : public enum&#xa;+ bulletpool : private BulletPool&#xa;+ hitpool : private HitEffectPool&#xa;+ starpool : private StarPool&#xa;+ coin1pool : private Coin1Pool&#xa;+ coin2pool : private Coin2Pool&#xa;+ coin3pool : private Coin3Pool&#xa;+ DamageTextpool&#xa;: " style="text;strokeColor=none;fillColor=none;align=left;verticalAlign=top;spacingLeft=4;spacingRight=4;overflow=hidden;rotatable=0;points=[[0,0.5],[1,0.5]];portConstraint=eastwest;rounded=0;" parent="oKwF6M0V3REEbmT1rOgS-8" vertex="1">
          <mxGeometry y="26" width="160" height="90" as="geometry" />
        </mxCell>
        <mxCell id="oKwF6M0V3REEbmT1rOgS-10" value="" style="line;strokeWidth=1;fillColor=none;align=center;verticalAlign=middle;spacingTop=-1;spacingLeft=3;spacingRight=3;rotatable=0;labelPosition=right;points=[];portConstraint=eastwest;strokeColor=inherit;rounded=0;" parent="oKwF6M0V3REEbmT1rOgS-8" vertex="1">
          <mxGeometry y="116" width="160" height="17" as="geometry" />
        </mxCell>
        <mxCell id="oKwF6M0V3REEbmT1rOgS-11" value="+ PreInitialize(): protected override void&#xa;+ Initialize() : protected override void&#xa;+ GetObject(PoolObjectType type) : public GameObject&#xa;+ GetBullet() : public Bullet&#xa;+ GetHitEffect() : public Effect&#xa;+ GetStar() : public ItemStar&#xa;+ GetCoin1() : public Coin1Copper&#xa;+ GetCoin2() : public Coin2Silver&#xa;+ GetCoin3() : public Coin3Gold&#xa;+ GetDamageTexxt : public DamageText&#xa;+ GetHeart() : public ItemHeart" style="text;strokeColor=none;fillColor=none;align=left;verticalAlign=top;spacingLeft=4;spacingRight=4;overflow=hidden;rotatable=0;points=[[0,0.5],[1,0.5]];portConstraint=eastwest;rounded=0;" parent="oKwF6M0V3REEbmT1rOgS-8" vertex="1">
          <mxGeometry y="133" width="160" height="171" as="geometry" />
        </mxCell>
        <mxCell id="oKwF6M0V3REEbmT1rOgS-12" value="Spawner(Land)" style="swimlane;fontStyle=1;align=center;verticalAlign=top;childLayout=stackLayout;horizontal=1;startSize=26;horizontalStack=0;resizeParent=1;resizeParentMax=0;resizeLast=0;collapsible=1;marginBottom=0;rounded=0;fillColor=#e1d5e7;strokeColor=#9673a6;" parent="1" vertex="1">
          <mxGeometry x="802" y="1995" width="160" height="174" as="geometry">
            <mxRectangle x="211" y="50" width="103" height="26" as="alternateBounds" />
          </mxGeometry>
        </mxCell>
        <mxCell id="oKwF6M0V3REEbmT1rOgS-13" value="+ objType : public LandType&#xa;+ interval : public float&#xa;+ minY : public float&#xa;+ maxY : public float" style="text;strokeColor=none;fillColor=none;align=left;verticalAlign=top;spacingLeft=4;spacingRight=4;overflow=hidden;rotatable=0;points=[[0,0.5],[1,0.5]];portConstraint=eastwest;rounded=0;" parent="oKwF6M0V3REEbmT1rOgS-12" vertex="1">
          <mxGeometry y="26" width="160" height="80" as="geometry" />
        </mxCell>
        <mxCell id="oKwF6M0V3REEbmT1rOgS-14" value="" style="line;strokeWidth=1;fillColor=none;align=center;verticalAlign=middle;spacingTop=-1;spacingLeft=3;spacingRight=3;rotatable=0;labelPosition=right;points=[];portConstraint=eastwest;strokeColor=inherit;rounded=0;" parent="oKwF6M0V3REEbmT1rOgS-12" vertex="1">
          <mxGeometry y="106" width="160" height="17" as="geometry" />
        </mxCell>
        <mxCell id="oKwF6M0V3REEbmT1rOgS-15" value="+ Spawn() : protected virtual IEnumerator&#xa;+ onSpawn(GameObject obj) : protected virtual void " style="text;strokeColor=none;fillColor=none;align=left;verticalAlign=top;spacingLeft=4;spacingRight=4;overflow=hidden;rotatable=0;points=[[0,0.5],[1,0.5]];portConstraint=eastwest;rounded=0;" parent="oKwF6M0V3REEbmT1rOgS-12" vertex="1">
          <mxGeometry y="123" width="160" height="51" as="geometry" />
        </mxCell>
        <mxCell id="oKwF6M0V3REEbmT1rOgS-16" value="Factory(Land)" style="swimlane;fontStyle=1;align=center;verticalAlign=top;childLayout=stackLayout;horizontal=1;startSize=26;horizontalStack=0;resizeParent=1;resizeParentMax=0;resizeLast=0;collapsible=1;marginBottom=0;rounded=0;fillColor=#ffe6cc;strokeColor=#d79b00;" parent="1" vertex="1">
          <mxGeometry x="974" y="1996" width="160" height="254" as="geometry">
            <mxRectangle x="211" y="50" width="103" height="26" as="alternateBounds" />
          </mxGeometry>
        </mxCell>
        <mxCell id="oKwF6M0V3REEbmT1rOgS-17" value="+ LandType : public enum&#xa;+ land1pool : private Land1Pool&#xa;+ land2pool : private Land2Pool&#xa;+ land3pool : private Land3Pool&#xa;+ land4pool : private Land4Pool&#xa;+ land5pool : private Land5Pool;&#xa;" style="text;strokeColor=none;fillColor=none;align=left;verticalAlign=top;spacingLeft=4;spacingRight=4;overflow=hidden;rotatable=0;points=[[0,0.5],[1,0.5]];portConstraint=eastwest;rounded=0;" parent="oKwF6M0V3REEbmT1rOgS-16" vertex="1">
          <mxGeometry y="26" width="160" height="91" as="geometry" />
        </mxCell>
        <mxCell id="oKwF6M0V3REEbmT1rOgS-18" value="" style="line;strokeWidth=1;fillColor=none;align=center;verticalAlign=middle;spacingTop=-1;spacingLeft=3;spacingRight=3;rotatable=0;labelPosition=right;points=[];portConstraint=eastwest;strokeColor=inherit;rounded=0;" parent="oKwF6M0V3REEbmT1rOgS-16" vertex="1">
          <mxGeometry y="117" width="160" height="17" as="geometry" />
        </mxCell>
        <mxCell id="oKwF6M0V3REEbmT1rOgS-19" value="+ PreInitialize(): protected override void&#xa;+ Initialize() : protected override void&#xa;+ GetObject(LandType type) : public GameObject&#xa;+ GetLand1() : public Land1&#xa;+ GetLand2() : public Land2&#xa;+ GetLand3() : public Land3&#xa;+ GetLand4() : public Land4&#xa;+ GetLand5() : public Land5" style="text;strokeColor=none;fillColor=none;align=left;verticalAlign=top;spacingLeft=4;spacingRight=4;overflow=hidden;rotatable=0;points=[[0,0.5],[1,0.5]];portConstraint=eastwest;rounded=0;" parent="oKwF6M0V3REEbmT1rOgS-16" vertex="1">
          <mxGeometry y="134" width="160" height="120" as="geometry" />
        </mxCell>
        <mxCell id="oKwF6M0V3REEbmT1rOgS-20" value="MapPool&lt;T&gt;  T:PoolObject" style="swimlane;fontStyle=1;align=center;verticalAlign=top;childLayout=stackLayout;horizontal=1;startSize=26;horizontalStack=0;resizeParent=1;resizeParentMax=0;resizeLast=0;collapsible=1;marginBottom=0;rounded=0;fillColor=#e1d5e7;strokeColor=#9673a6;" parent="1" vertex="1">
          <mxGeometry x="629" y="2098" width="160" height="182" as="geometry">
            <mxRectangle x="60" y="50" width="103" height="26" as="alternateBounds" />
          </mxGeometry>
        </mxCell>
        <mxCell id="oKwF6M0V3REEbmT1rOgS-21" value="+ poolSize : public int&#xa;+ originalPrefab : GameObject&#xa;+ pool : T[]&#xa;+ ReadyQueue : protected Queue&lt;T&gt;" style="text;strokeColor=none;fillColor=none;align=left;verticalAlign=top;spacingLeft=4;spacingRight=4;overflow=hidden;rotatable=0;points=[[0,0.5],[1,0.5]];portConstraint=eastwest;rounded=0;" parent="oKwF6M0V3REEbmT1rOgS-20" vertex="1">
          <mxGeometry y="26" width="160" height="60" as="geometry" />
        </mxCell>
        <mxCell id="oKwF6M0V3REEbmT1rOgS-22" value="" style="line;strokeWidth=1;fillColor=none;align=left;verticalAlign=middle;spacingTop=-1;spacingLeft=3;spacingRight=3;rotatable=0;labelPosition=right;points=[];portConstraint=eastwest;strokeColor=inherit;rounded=0;" parent="oKwF6M0V3REEbmT1rOgS-20" vertex="1">
          <mxGeometry y="86" width="160" height="8" as="geometry" />
        </mxCell>
        <mxCell id="oKwF6M0V3REEbmT1rOgS-23" value="+ Initialize() : public void&#xa;+ GenerateObjects(int start, int end, T[]newArray) : private void&#xa;+ GetObject() : public T&#xa;+ GetObject(Transform spawnTransform) : public T&#xa;+ ExpandPool() : private void" style="text;strokeColor=none;fillColor=none;align=left;verticalAlign=top;spacingLeft=4;spacingRight=4;overflow=hidden;rotatable=0;points=[[0,0.5],[1,0.5]];portConstraint=eastwest;rounded=0;" parent="oKwF6M0V3REEbmT1rOgS-20" vertex="1">
          <mxGeometry y="94" width="160" height="88" as="geometry" />
        </mxCell>
        <mxCell id="oKwF6M0V3REEbmT1rOgS-24" value="ObjectPool&lt;T&gt; T:PoolObject" style="swimlane;fontStyle=1;align=center;verticalAlign=top;childLayout=stackLayout;horizontal=1;startSize=26;horizontalStack=0;resizeParent=1;resizeParentMax=0;resizeLast=0;collapsible=1;marginBottom=0;rounded=0;fillColor=#e1d5e7;strokeColor=#9673a6;" parent="1" vertex="1">
          <mxGeometry x="794" y="1644" width="160" height="182" as="geometry">
            <mxRectangle x="60" y="50" width="103" height="26" as="alternateBounds" />
          </mxGeometry>
        </mxCell>
        <mxCell id="oKwF6M0V3REEbmT1rOgS-25" value="+ poolSize : public int&#xa;+ originalPrefab : GameObject&#xa;+ pool : T[]&#xa;+ ReadyQueue : protected Queue&lt;T&gt;" style="text;strokeColor=none;fillColor=none;align=left;verticalAlign=top;spacingLeft=4;spacingRight=4;overflow=hidden;rotatable=0;points=[[0,0.5],[1,0.5]];portConstraint=eastwest;rounded=0;" parent="oKwF6M0V3REEbmT1rOgS-24" vertex="1">
          <mxGeometry y="26" width="160" height="60" as="geometry" />
        </mxCell>
        <mxCell id="oKwF6M0V3REEbmT1rOgS-26" value="" style="line;strokeWidth=1;fillColor=none;align=left;verticalAlign=middle;spacingTop=-1;spacingLeft=3;spacingRight=3;rotatable=0;labelPosition=right;points=[];portConstraint=eastwest;strokeColor=inherit;rounded=0;" parent="oKwF6M0V3REEbmT1rOgS-24" vertex="1">
          <mxGeometry y="86" width="160" height="8" as="geometry" />
        </mxCell>
        <mxCell id="oKwF6M0V3REEbmT1rOgS-27" value="+ Initialize() : public void&#xa;+ GenerateObjects(int start, int end, T[]newArray) : private void&#xa;+ GetObject() : public T&#xa;+ GetObject(Transform spawnTransform) : public T&#xa;+ ExpandPool() : private void" style="text;strokeColor=none;fillColor=none;align=left;verticalAlign=top;spacingLeft=4;spacingRight=4;overflow=hidden;rotatable=0;points=[[0,0.5],[1,0.5]];portConstraint=eastwest;rounded=0;" parent="oKwF6M0V3REEbmT1rOgS-24" vertex="1">
          <mxGeometry y="94" width="160" height="88" as="geometry" />
        </mxCell>
        <mxCell id="oKwF6M0V3REEbmT1rOgS-28" value="PoolObject" style="swimlane;fontStyle=1;align=center;verticalAlign=top;childLayout=stackLayout;horizontal=1;startSize=26;horizontalStack=0;resizeParent=1;resizeParentMax=0;resizeLast=0;collapsible=1;marginBottom=0;rounded=0;fillColor=#e1d5e7;strokeColor=#9673a6;" parent="1" vertex="1">
          <mxGeometry x="265" y="1039" width="160" height="127" as="geometry">
            <mxRectangle x="211" y="50" width="103" height="26" as="alternateBounds" />
          </mxGeometry>
        </mxCell>
        <mxCell id="oKwF6M0V3REEbmT1rOgS-29" value="+ onDisable : public Action" style="text;strokeColor=none;fillColor=none;align=left;verticalAlign=top;spacingLeft=4;spacingRight=4;overflow=hidden;rotatable=0;points=[[0,0.5],[1,0.5]];portConstraint=eastwest;rounded=0;" parent="oKwF6M0V3REEbmT1rOgS-28" vertex="1">
          <mxGeometry y="26" width="160" height="26" as="geometry" />
        </mxCell>
        <mxCell id="oKwF6M0V3REEbmT1rOgS-30" value="" style="line;strokeWidth=1;fillColor=none;align=left;verticalAlign=middle;spacingTop=-1;spacingLeft=3;spacingRight=3;rotatable=0;labelPosition=right;points=[];portConstraint=eastwest;strokeColor=inherit;rounded=0;" parent="oKwF6M0V3REEbmT1rOgS-28" vertex="1">
          <mxGeometry y="52" width="160" height="8" as="geometry" />
        </mxCell>
        <mxCell id="oKwF6M0V3REEbmT1rOgS-31" value="+ OnDisable() : protected virtual void&#xa;+ LifeOver(flaot delay= 0.0f) : protected virtual IEnumerator" style="text;strokeColor=none;fillColor=none;align=left;verticalAlign=top;spacingLeft=4;spacingRight=4;overflow=hidden;rotatable=0;points=[[0,0.5],[1,0.5]];portConstraint=eastwest;rounded=0;" parent="oKwF6M0V3REEbmT1rOgS-28" vertex="1">
          <mxGeometry y="60" width="160" height="67" as="geometry" />
        </mxCell>
        <mxCell id="oKwF6M0V3REEbmT1rOgS-32" value="Singleton&lt;T&gt;" style="swimlane;fontStyle=1;align=center;verticalAlign=top;childLayout=stackLayout;horizontal=1;startSize=26;horizontalStack=0;resizeParent=1;resizeParentMax=0;resizeLast=0;collapsible=1;marginBottom=0;rounded=0;fillColor=#e1d5e7;strokeColor=#9673a6;" parent="1" vertex="1">
          <mxGeometry x="438" y="1039" width="160" height="208" as="geometry">
            <mxRectangle x="211" y="50" width="103" height="26" as="alternateBounds" />
          </mxGeometry>
        </mxCell>
        <mxCell id="oKwF6M0V3REEbmT1rOgS-33" value="+ initialized : private bool&#xa;+ Not_Set : private const int&#xa;+ mainSceneIndex : private int&#xa;+ isShutDown : private static bool&#xa;+ instance : private Static T&#xa;+ Inst : public static T" style="text;strokeColor=none;fillColor=none;align=left;verticalAlign=top;spacingLeft=4;spacingRight=4;overflow=hidden;rotatable=0;points=[[0,0.5],[1,0.5]];portConstraint=eastwest;rounded=0;" parent="oKwF6M0V3REEbmT1rOgS-32" vertex="1">
          <mxGeometry y="26" width="160" height="93" as="geometry" />
        </mxCell>
        <mxCell id="oKwF6M0V3REEbmT1rOgS-34" value="" style="line;strokeWidth=1;fillColor=none;align=left;verticalAlign=middle;spacingTop=-1;spacingLeft=3;spacingRight=3;rotatable=0;labelPosition=right;points=[];portConstraint=eastwest;strokeColor=inherit;rounded=0;" parent="oKwF6M0V3REEbmT1rOgS-32" vertex="1">
          <mxGeometry y="119" width="160" height="8" as="geometry" />
        </mxCell>
        <mxCell id="oKwF6M0V3REEbmT1rOgS-35" value="+ OnApplicationQuit() : private void&#xa;+ OnSceneLoaded(Scene scene, LoadSceneMode mode) : private void&#xa;+ PreInitialize() : protected virtual void&#xa;+ Initialize() : protected virtual void&#xa;+ ResetData() : protected virtual void" style="text;strokeColor=none;fillColor=none;align=left;verticalAlign=top;spacingLeft=4;spacingRight=4;overflow=hidden;rotatable=0;points=[[0,0.5],[1,0.5]];portConstraint=eastwest;rounded=0;" parent="oKwF6M0V3REEbmT1rOgS-32" vertex="1">
          <mxGeometry y="127" width="160" height="81" as="geometry" />
        </mxCell>
        <mxCell id="6oGHIOJsxx8lZvOddpZp-13" value="RandomCoinPool" style="swimlane;fontStyle=1;align=center;verticalAlign=top;childLayout=stackLayout;horizontal=1;startSize=26;horizontalStack=0;resizeParent=1;resizeParentMax=0;resizeLast=0;collapsible=1;marginBottom=0;rounded=0;fillColor=#e1d5e7;strokeColor=#9673a6;" vertex="1" parent="1">
          <mxGeometry x="278" y="1780" width="160" height="126" as="geometry">
            <mxRectangle x="211" y="50" width="103" height="26" as="alternateBounds" />
          </mxGeometry>
        </mxCell>
        <mxCell id="6oGHIOJsxx8lZvOddpZp-14" value="+ Rate : private float&#xa;+ goldRate : private float&#xa;+ silverRate : private float" style="text;strokeColor=none;fillColor=none;align=left;verticalAlign=top;spacingLeft=4;spacingRight=4;overflow=hidden;rotatable=0;points=[[0,0.5],[1,0.5]];portConstraint=eastwest;rounded=0;" vertex="1" parent="6oGHIOJsxx8lZvOddpZp-13">
          <mxGeometry y="26" width="160" height="66" as="geometry" />
        </mxCell>
        <mxCell id="6oGHIOJsxx8lZvOddpZp-15" value="" style="line;strokeWidth=1;fillColor=none;align=left;verticalAlign=middle;spacingTop=-1;spacingLeft=3;spacingRight=3;rotatable=0;labelPosition=right;points=[];portConstraint=eastwest;strokeColor=inherit;rounded=0;" vertex="1" parent="6oGHIOJsxx8lZvOddpZp-13">
          <mxGeometry y="92" width="160" height="8" as="geometry" />
        </mxCell>
        <mxCell id="6oGHIOJsxx8lZvOddpZp-16" value="+ RandomCoin() : public static PoolObjectType" style="text;strokeColor=none;fillColor=none;align=left;verticalAlign=top;spacingLeft=4;spacingRight=4;overflow=hidden;rotatable=0;points=[[0,0.5],[1,0.5]];portConstraint=eastwest;rounded=0;" vertex="1" parent="6oGHIOJsxx8lZvOddpZp-13">
          <mxGeometry y="100" width="160" height="26" as="geometry" />
        </mxCell>
        <mxCell id="6oGHIOJsxx8lZvOddpZp-33" value="배경다중스크롤&#xa;(배경 scroller_Base)" style="swimlane;fontStyle=1;align=center;verticalAlign=top;childLayout=stackLayout;horizontal=1;startSize=26;horizontalStack=0;resizeParent=1;resizeParentMax=0;resizeLast=0;collapsible=1;marginBottom=0;rounded=0;fillColor=#ffe6cc;strokeColor=#d79b00;" vertex="1" parent="1">
          <mxGeometry x="440" y="2310" width="160" height="148" as="geometry">
            <mxRectangle x="60" y="50" width="103" height="26" as="alternateBounds" />
          </mxGeometry>
        </mxCell>
        <mxCell id="6oGHIOJsxx8lZvOddpZp-34" value="+ isStart : private bool&#xa;+ scrollingSpeed : public float&#xa;+ slot_Width :private float&#xa;+ Slot_Width : public float" style="text;strokeColor=none;fillColor=none;align=left;verticalAlign=top;spacingLeft=4;spacingRight=4;overflow=hidden;rotatable=0;points=[[0,0.5],[1,0.5]];portConstraint=eastwest;rounded=0;" vertex="1" parent="6oGHIOJsxx8lZvOddpZp-33">
          <mxGeometry y="26" width="160" height="72" as="geometry" />
        </mxCell>
        <mxCell id="6oGHIOJsxx8lZvOddpZp-35" value="" style="line;strokeWidth=1;fillColor=none;align=left;verticalAlign=middle;spacingTop=-1;spacingLeft=3;spacingRight=3;rotatable=0;labelPosition=right;points=[];portConstraint=eastwest;strokeColor=inherit;rounded=0;" vertex="1" parent="6oGHIOJsxx8lZvOddpZp-33">
          <mxGeometry y="98" width="160" height="8" as="geometry" />
        </mxCell>
        <mxCell id="6oGHIOJsxx8lZvOddpZp-36" value="+ OnStart() : private void&#xa;+ MoveRightEnd(int index) : protected virtual vioid" style="text;strokeColor=none;fillColor=none;align=left;verticalAlign=top;spacingLeft=4;spacingRight=4;overflow=hidden;rotatable=0;points=[[0,0.5],[1,0.5]];portConstraint=eastwest;rounded=0;" vertex="1" parent="6oGHIOJsxx8lZvOddpZp-33">
          <mxGeometry y="106" width="160" height="42" as="geometry" />
        </mxCell>
        <mxCell id="6oGHIOJsxx8lZvOddpZp-37" value="LandBase" style="swimlane;fontStyle=1;align=center;verticalAlign=top;childLayout=stackLayout;horizontal=1;startSize=26;horizontalStack=0;resizeParent=1;resizeParentMax=0;resizeLast=0;collapsible=1;marginBottom=0;rounded=0;fillColor=#e1d5e7;strokeColor=#9673a6;" vertex="1" parent="1">
          <mxGeometry x="95" y="2170" width="160" height="110" as="geometry">
            <mxRectangle x="60" y="50" width="103" height="26" as="alternateBounds" />
          </mxGeometry>
        </mxCell>
        <mxCell id="6oGHIOJsxx8lZvOddpZp-38" value="+ moveSpeed : public float&#xa;+ moveDir : Vector2&#xa;+ moveDelta : Vector2" style="text;strokeColor=none;fillColor=none;align=left;verticalAlign=top;spacingLeft=4;spacingRight=4;overflow=hidden;rotatable=0;points=[[0,0.5],[1,0.5]];portConstraint=eastwest;rounded=0;" vertex="1" parent="6oGHIOJsxx8lZvOddpZp-37">
          <mxGeometry y="26" width="160" height="50" as="geometry" />
        </mxCell>
        <mxCell id="6oGHIOJsxx8lZvOddpZp-39" value="" style="line;strokeWidth=1;fillColor=none;align=left;verticalAlign=middle;spacingTop=-1;spacingLeft=3;spacingRight=3;rotatable=0;labelPosition=right;points=[];portConstraint=eastwest;strokeColor=inherit;rounded=0;" vertex="1" parent="6oGHIOJsxx8lZvOddpZp-37">
          <mxGeometry y="76" width="160" height="8" as="geometry" />
        </mxCell>
        <mxCell id="6oGHIOJsxx8lZvOddpZp-40" value="-" style="text;strokeColor=none;fillColor=none;align=left;verticalAlign=top;spacingLeft=4;spacingRight=4;overflow=hidden;rotatable=0;points=[[0,0.5],[1,0.5]];portConstraint=eastwest;rounded=0;" vertex="1" parent="6oGHIOJsxx8lZvOddpZp-37">
          <mxGeometry y="84" width="160" height="26" as="geometry" />
        </mxCell>
        <mxCell id="6oGHIOJsxx8lZvOddpZp-41" value="바닥  강제 스크롤&#xa;(배경 scroller_Ground1)" style="swimlane;fontStyle=1;align=center;verticalAlign=top;childLayout=stackLayout;horizontal=1;startSize=26;horizontalStack=0;resizeParent=1;resizeParentMax=0;resizeLast=0;collapsible=1;marginBottom=0;rounded=0;fillColor=#e1d5e7;strokeColor=#9673a6;" vertex="1" parent="1">
          <mxGeometry x="618" y="2330" width="160" height="86" as="geometry">
            <mxRectangle x="60" y="50" width="103" height="26" as="alternateBounds" />
          </mxGeometry>
        </mxCell>
        <mxCell id="6oGHIOJsxx8lZvOddpZp-42" value="&#xa;+ slotWidth : private float" style="text;strokeColor=none;fillColor=none;align=left;verticalAlign=top;spacingLeft=4;spacingRight=4;overflow=hidden;rotatable=0;points=[[0,0.5],[1,0.5]];portConstraint=eastwest;rounded=0;" vertex="1" parent="6oGHIOJsxx8lZvOddpZp-41">
          <mxGeometry y="26" width="160" height="28" as="geometry" />
        </mxCell>
        <mxCell id="6oGHIOJsxx8lZvOddpZp-43" value="" style="line;strokeWidth=1;fillColor=none;align=left;verticalAlign=middle;spacingTop=-1;spacingLeft=3;spacingRight=3;rotatable=0;labelPosition=right;points=[];portConstraint=eastwest;strokeColor=inherit;rounded=0;" vertex="1" parent="6oGHIOJsxx8lZvOddpZp-41">
          <mxGeometry y="54" width="160" height="8" as="geometry" />
        </mxCell>
        <mxCell id="6oGHIOJsxx8lZvOddpZp-44" value="+ MoveRightEnd(int index) : protected override vioid" style="text;strokeColor=none;fillColor=none;align=left;verticalAlign=top;spacingLeft=4;spacingRight=4;overflow=hidden;rotatable=0;points=[[0,0.5],[1,0.5]];portConstraint=eastwest;rounded=0;" vertex="1" parent="6oGHIOJsxx8lZvOddpZp-41">
          <mxGeometry y="62" width="160" height="24" as="geometry" />
        </mxCell>
        <mxCell id="6oGHIOJsxx8lZvOddpZp-50" value="" style="endArrow=classic;html=1;rounded=0;entryX=0.479;entryY=1.157;entryDx=0;entryDy=0;entryPerimeter=0;" edge="1" parent="1" source="T9mUNza6fIRcTFa7Orfm-156" target="T9mUNza6fIRcTFa7Orfm-150">
          <mxGeometry width="50" height="50" relative="1" as="geometry">
            <mxPoint x="544" y="2356" as="sourcePoint" />
            <mxPoint x="594" y="2306" as="targetPoint" />
          </mxGeometry>
        </mxCell>
        <mxCell id="6oGHIOJsxx8lZvOddpZp-52" value="Land5(HiddenPlatform):LandBase" style="swimlane;fontStyle=1;align=center;verticalAlign=top;childLayout=stackLayout;horizontal=1;startSize=26;horizontalStack=0;resizeParent=1;resizeParentMax=0;resizeLast=0;collapsible=1;marginBottom=0;rounded=0;fillColor=#e1d5e7;strokeColor=#9673a6;" vertex="1" parent="1">
          <mxGeometry x="80" y="2043" width="160" height="110" as="geometry">
            <mxRectangle x="60" y="50" width="103" height="26" as="alternateBounds" />
          </mxGeometry>
        </mxCell>
        <mxCell id="6oGHIOJsxx8lZvOddpZp-53" value="+ pos : private Vector2&#xa;+ elapsed : private float&#xa;+ scrollerSpeed : private float" style="text;strokeColor=none;fillColor=none;align=left;verticalAlign=top;spacingLeft=4;spacingRight=4;overflow=hidden;rotatable=0;points=[[0,0.5],[1,0.5]];portConstraint=eastwest;rounded=0;" vertex="1" parent="6oGHIOJsxx8lZvOddpZp-52">
          <mxGeometry y="26" width="160" height="50" as="geometry" />
        </mxCell>
        <mxCell id="6oGHIOJsxx8lZvOddpZp-54" value="" style="line;strokeWidth=1;fillColor=none;align=left;verticalAlign=middle;spacingTop=-1;spacingLeft=3;spacingRight=3;rotatable=0;labelPosition=right;points=[];portConstraint=eastwest;strokeColor=inherit;rounded=0;" vertex="1" parent="6oGHIOJsxx8lZvOddpZp-52">
          <mxGeometry y="76" width="160" height="8" as="geometry" />
        </mxCell>
        <mxCell id="6oGHIOJsxx8lZvOddpZp-55" value="-" style="text;strokeColor=none;fillColor=none;align=left;verticalAlign=top;spacingLeft=4;spacingRight=4;overflow=hidden;rotatable=0;points=[[0,0.5],[1,0.5]];portConstraint=eastwest;rounded=0;" vertex="1" parent="6oGHIOJsxx8lZvOddpZp-52">
          <mxGeometry y="84" width="160" height="26" as="geometry" />
        </mxCell>
        <mxCell id="nKbr43ptvlHbaDl83pBZ-1" value="LoadingScene" style="swimlane;fontStyle=1;align=center;verticalAlign=top;childLayout=stackLayout;horizontal=1;startSize=26;horizontalStack=0;resizeParent=1;resizeParentMax=0;resizeLast=0;collapsible=1;marginBottom=0;rounded=0;fillColor=#e1d5e7;strokeColor=#9673a6;" vertex="1" parent="1">
          <mxGeometry x="625" y="2433" width="160" height="233" as="geometry">
            <mxRectangle x="211" y="50" width="103" height="26" as="alternateBounds" />
          </mxGeometry>
        </mxCell>
        <mxCell id="nKbr43ptvlHbaDl83pBZ-2" value="+ ladingBarSpeed : public float&#xa;+ nextSceneName : public string&#xa;+ loadRatio : private float&#xa;+ loadingComplete : private bool&#xa;+ images : private Image[]&#xa;+ tips : private string[]&#xa;+ loadings : private string[]" style="text;strokeColor=none;fillColor=none;align=left;verticalAlign=top;spacingLeft=4;spacingRight=4;overflow=hidden;rotatable=0;points=[[0,0.5],[1,0.5]];portConstraint=eastwest;rounded=0;" vertex="1" parent="nKbr43ptvlHbaDl83pBZ-1">
          <mxGeometry y="26" width="160" height="118" as="geometry" />
        </mxCell>
        <mxCell id="nKbr43ptvlHbaDl83pBZ-3" value="" style="line;strokeWidth=1;fillColor=none;align=left;verticalAlign=middle;spacingTop=-1;spacingLeft=3;spacingRight=3;rotatable=0;labelPosition=right;points=[];portConstraint=eastwest;strokeColor=inherit;rounded=0;" vertex="1" parent="nKbr43ptvlHbaDl83pBZ-1">
          <mxGeometry y="144" width="160" height="8" as="geometry" />
        </mxCell>
        <mxCell id="nKbr43ptvlHbaDl83pBZ-4" value="+ Press(InputAction.CallbackContext _) : private void&#xa;+ LoadScene() : private IEnumerator&#xa;+ LoadingText(): private IEnumerator&#xa;" style="text;strokeColor=none;fillColor=none;align=left;verticalAlign=top;spacingLeft=4;spacingRight=4;overflow=hidden;rotatable=0;points=[[0,0.5],[1,0.5]];portConstraint=eastwest;rounded=0;" vertex="1" parent="nKbr43ptvlHbaDl83pBZ-1">
          <mxGeometry y="152" width="160" height="81" as="geometry" />
        </mxCell>
        <mxCell id="nKbr43ptvlHbaDl83pBZ-5" value="RunningStage ProgressBar" style="swimlane;fontStyle=1;align=center;verticalAlign=top;childLayout=stackLayout;horizontal=1;startSize=26;horizontalStack=0;resizeParent=1;resizeParentMax=0;resizeLast=0;collapsible=1;marginBottom=0;rounded=0;fillColor=#e1d5e7;strokeColor=#9673a6;" vertex="1" parent="1">
          <mxGeometry x="716" y="1504" width="160" height="86" as="geometry">
            <mxRectangle x="211" y="50" width="103" height="26" as="alternateBounds" />
          </mxGeometry>
        </mxCell>
        <mxCell id="nKbr43ptvlHbaDl83pBZ-6" value="+ field: type" style="text;strokeColor=none;fillColor=none;align=left;verticalAlign=top;spacingLeft=4;spacingRight=4;overflow=hidden;rotatable=0;points=[[0,0.5],[1,0.5]];portConstraint=eastwest;rounded=0;" vertex="1" parent="nKbr43ptvlHbaDl83pBZ-5">
          <mxGeometry y="26" width="160" height="26" as="geometry" />
        </mxCell>
        <mxCell id="nKbr43ptvlHbaDl83pBZ-7" value="" style="line;strokeWidth=1;fillColor=none;align=left;verticalAlign=middle;spacingTop=-1;spacingLeft=3;spacingRight=3;rotatable=0;labelPosition=right;points=[];portConstraint=eastwest;strokeColor=inherit;rounded=0;" vertex="1" parent="nKbr43ptvlHbaDl83pBZ-5">
          <mxGeometry y="52" width="160" height="8" as="geometry" />
        </mxCell>
        <mxCell id="nKbr43ptvlHbaDl83pBZ-8" value="+ SetValue(int platform) : private void" style="text;strokeColor=none;fillColor=none;align=left;verticalAlign=top;spacingLeft=4;spacingRight=4;overflow=hidden;rotatable=0;points=[[0,0.5],[1,0.5]];portConstraint=eastwest;rounded=0;" vertex="1" parent="nKbr43ptvlHbaDl83pBZ-5">
          <mxGeometry y="60" width="160" height="26" as="geometry" />
        </mxCell>
      </root>
    </mxGraphModel>
  </diagram>
</mxfile>
